<svg width="38" height="39" viewBox="0 0 38 39" fill="none" xmlns="http://www.w3.org/2000/svg">
<rect y="0.5" width="38" height="38" rx="2" fill="white" fill-opacity="0.06"/>
<path d="M18.8409 25.6591C18.1742 25.6591 17.5739 25.5265 17.0398 25.2614C16.5057 24.9962 16.0777 24.6326 15.7557 24.1705C15.4337 23.7083 15.2576 23.1818 15.2273 22.5909H16.5909C16.6439 23.1174 16.8826 23.553 17.3068 23.8977C17.7348 24.2386 18.2462 24.4091 18.8409 24.4091C19.3182 24.4091 19.7424 24.2973 20.1136 24.0739C20.4886 23.8504 20.7822 23.5436 20.9943 23.1534C21.2102 22.7595 21.3182 22.3144 21.3182 21.8182C21.3182 21.3106 21.2064 20.858 20.983 20.4602C20.7633 20.0587 20.4602 19.7424 20.0739 19.5114C19.6875 19.2803 19.2462 19.1629 18.75 19.1591C18.3939 19.1553 18.0284 19.2102 17.6534 19.3239C17.2784 19.4337 16.9697 19.5758 16.7273 19.75L15.4091 19.5909L16.1136 13.8636H22.1591V15.1136H17.2955L16.8864 18.5455H16.9545C17.1932 18.3561 17.4924 18.1989 17.8523 18.0739C18.2121 17.9489 18.5871 17.8864 18.9773 17.8864C19.6894 17.8864 20.3239 18.0568 20.8807 18.3977C21.4413 18.7348 21.8807 19.197 22.1989 19.7841C22.5208 20.3712 22.6818 21.0417 22.6818 21.7955C22.6818 22.5379 22.5152 23.2008 22.1818 23.7841C21.8523 24.3636 21.3977 24.822 20.8182 25.1591C20.2386 25.4924 19.5795 25.6591 18.8409 25.6591Z" fill="white"/>
</svg>
