<svg width="38" height="39" viewBox="0 0 38 39" fill="none" xmlns="http://www.w3.org/2000/svg">
<rect y="0.5" width="38" height="38" rx="2" fill="white" fill-opacity="0.06"/>
<path d="M18.6364 25.6591C17.8864 25.6591 17.2178 25.5303 16.6307 25.2727C16.0473 25.0152 15.5833 24.6572 15.2386 24.1989C14.8977 23.7367 14.7121 23.2008 14.6818 22.5909H16.1136C16.1439 22.9659 16.2727 23.2898 16.5 23.5625C16.7273 23.8314 17.0246 24.0398 17.392 24.1875C17.7595 24.3352 18.1667 24.4091 18.6136 24.4091C19.1136 24.4091 19.5568 24.322 19.9432 24.1477C20.3295 23.9735 20.6326 23.7311 20.8523 23.4205C21.072 23.1098 21.1818 22.75 21.1818 22.3409C21.1818 21.9129 21.0758 21.536 20.8636 21.2102C20.6515 20.8807 20.3409 20.6231 19.9318 20.4375C19.5227 20.2519 19.0227 20.1591 18.4318 20.1591H17.5V18.9091H18.4318C18.8939 18.9091 19.2992 18.8258 19.6477 18.6591C20 18.4924 20.2746 18.2576 20.4716 17.9545C20.6723 17.6515 20.7727 17.2955 20.7727 16.8864C20.7727 16.4924 20.6856 16.1496 20.5114 15.858C20.3371 15.5663 20.0909 15.339 19.7727 15.1761C19.4583 15.0133 19.0871 14.9318 18.6591 14.9318C18.2576 14.9318 17.8788 15.0057 17.5227 15.1534C17.1705 15.2973 16.8826 15.5076 16.6591 15.7841C16.4356 16.0568 16.3144 16.3864 16.2955 16.7727H14.9318C14.9545 16.1629 15.1383 15.6288 15.483 15.1705C15.8277 14.7083 16.2784 14.3485 16.8352 14.0909C17.3958 13.8333 18.0114 13.7045 18.6818 13.7045C19.4015 13.7045 20.0189 13.8504 20.5341 14.142C21.0492 14.4299 21.4451 14.8106 21.7216 15.2841C21.9981 15.7576 22.1364 16.2689 22.1364 16.8182C22.1364 17.4735 21.964 18.0322 21.6193 18.4943C21.2784 18.9564 20.8144 19.2765 20.2273 19.4545V19.5455C20.9621 19.6667 21.536 19.9792 21.9489 20.483C22.3617 20.983 22.5682 21.6023 22.5682 22.3409C22.5682 22.9735 22.3958 23.5417 22.0511 24.0455C21.7102 24.5455 21.2443 24.9394 20.6534 25.2273C20.0625 25.5152 19.3902 25.6591 18.6364 25.6591Z" fill="white"/>
</svg>
