<svg width="38" height="39" viewBox="0 0 38 39" fill="none" xmlns="http://www.w3.org/2000/svg">
<rect y="0.5" width="38" height="38" rx="2" fill="white" fill-opacity="0.06"/>
<path d="M15.2045 25.5V24.4773L19.0455 20.2727C19.4962 19.7803 19.8674 19.3523 20.1591 18.9886C20.4508 18.6212 20.6667 18.2765 20.8068 17.9545C20.9508 17.6288 21.0227 17.2879 21.0227 16.9318C21.0227 16.5227 20.9242 16.1686 20.7273 15.8693C20.5341 15.5701 20.2689 15.339 19.9318 15.1761C19.5947 15.0133 19.2159 14.9318 18.7955 14.9318C18.3485 14.9318 17.9583 15.0246 17.625 15.2102C17.2955 15.392 17.0398 15.6477 16.858 15.9773C16.6799 16.3068 16.5909 16.6932 16.5909 17.1364H15.25C15.25 16.4545 15.4072 15.8561 15.7216 15.3409C16.036 14.8258 16.464 14.4242 17.0057 14.1364C17.5511 13.8485 18.1629 13.7045 18.8409 13.7045C19.5227 13.7045 20.1269 13.8485 20.6534 14.1364C21.1799 14.4242 21.5928 14.8125 21.892 15.3011C22.1913 15.7898 22.3409 16.3333 22.3409 16.9318C22.3409 17.3598 22.2633 17.7784 22.108 18.1875C21.9564 18.5928 21.6913 19.0455 21.3125 19.5455C20.9375 20.0417 20.4167 20.6477 19.75 21.3636L17.1364 24.1591V24.25H22.5455V25.5H15.2045Z" fill="white"/>
</svg>
