<svg width="175" height="40" viewBox="0 0 175 40" fill="none" xmlns="http://www.w3.org/2000/svg">
<rect width="174.783" height="40" rx="2" fill="#FFB444" fill-opacity="0.08"/>
<path d="M20 10C20.0167 10 20.0333 10 20.0498 10C20.749 10.3184 21.2678 10.8172 21.6063 11.4962C21.6254 11.5343 21.6349 11.5755 21.6349 11.6196C21.6367 14.9738 21.6373 18.3282 21.6366 21.6826C21.6366 21.8918 21.6377 22.0734 21.6399 22.2272C21.6455 22.6015 21.6536 22.8695 21.6641 23.0313C21.7394 24.1974 22.1349 25.2409 22.8504 26.1619C23.2703 26.7021 23.7579 27.1453 24.3131 27.4916C25.3821 28.1579 26.5509 28.448 27.8195 28.3621C28.0039 28.3496 28.1858 28.3276 28.3652 28.2962C29.4115 28.1131 30.3362 27.6807 31.1393 26.9989C31.277 26.8819 31.4097 26.7567 31.5373 26.6232C32.524 25.5906 33.0554 24.3569 33.1315 22.9221C33.1413 22.7406 33.1397 22.5591 33.1269 22.3777C33.0249 20.9255 32.46 19.69 31.4323 18.6711C31.3012 18.5411 31.1652 18.4194 31.0244 18.3063C30.1954 17.6391 29.2497 17.2292 28.1875 17.0768C28.0028 17.0503 27.8204 17.0336 27.6401 17.0267C27.3486 17.0158 27.0573 17.0263 26.7663 17.0583C26.6863 17.0672 26.599 17.074 26.5042 17.0787C26.5016 17.0789 26.4991 17.0785 26.4967 17.0776C26.4943 17.0768 26.4921 17.0754 26.4902 17.0736C26.4884 17.0719 26.4869 17.0698 26.4859 17.0674C26.4849 17.065 26.4843 17.0625 26.4844 17.0599V15.4632C26.4843 15.4567 26.4868 15.4503 26.4913 15.4454C26.4957 15.4405 26.5019 15.4375 26.5086 15.4368C26.8725 15.401 27.2404 15.3881 27.6121 15.3981C28.5293 15.4226 29.4074 15.6083 30.2465 15.955C30.4128 16.0237 30.579 16.1002 30.7449 16.1845C31.9966 16.821 32.9888 17.7335 33.7215 18.9221C33.8182 19.079 33.9075 19.2376 33.9894 19.3978C34.4526 20.3037 34.7129 21.2629 34.7703 22.2752C34.8446 23.584 34.583 24.8262 33.9856 26.0019C33.6718 26.6195 33.2853 27.1694 32.8259 27.6515C32.7016 27.7821 32.6237 27.8661 32.5922 27.9035C32.5852 27.9121 32.5726 27.9212 32.5545 27.9308C32.5396 27.9388 32.5273 27.9477 32.5176 27.9575C32.3627 28.1143 32.1982 28.2607 32.0242 28.3967C30.7952 29.3582 29.395 29.8926 27.8236 30C27.5599 30 27.2963 30 27.0328 30C25.5468 29.9168 24.2114 29.4486 23.0267 28.5954C22.8776 28.488 22.7337 28.3756 22.5951 28.258C21.9181 27.6844 21.3654 27.0179 20.9368 26.2586C20.3293 25.1814 20.0215 24.0148 20.0135 22.7589C20.0126 22.6219 20.0081 22.4851 20 22.3485C20 18.2322 20 14.1161 20 10Z" fill="#EA981C"/>
<path d="M29.1438 20.9417C28.7769 20.5847 28.341 20.3601 27.8362 20.2678C27.6543 20.2346 27.472 20.2226 27.2892 20.2319C27.0275 20.245 26.7699 20.2951 26.5165 20.3823C26.5129 20.3835 26.509 20.3839 26.5052 20.3834C26.5013 20.3828 26.4977 20.3814 26.4946 20.3792C26.4914 20.377 26.4888 20.3741 26.4871 20.3707C26.4853 20.3673 26.4844 20.3635 26.4844 20.3597V18.7259C26.4844 18.7138 26.4888 18.7021 26.4968 18.693C26.5049 18.6839 26.516 18.6779 26.5281 18.6763C26.6284 18.6625 26.7381 18.6479 26.8573 18.6324C27.2512 18.581 27.6442 18.5866 28.0362 18.649C28.9789 18.7991 29.7653 19.2045 30.3953 19.8654C31.0175 20.5179 31.3871 21.2848 31.5041 22.1662C31.588 22.7991 31.5239 23.4258 31.3115 24.0463C31.1113 24.6312 30.7843 25.1485 30.3307 25.5981C30.2016 25.7262 30.0634 25.8455 29.9162 25.9561C29.1884 26.5027 28.3631 26.7844 27.4404 26.8011C27.2589 26.8044 27.0759 26.7941 26.8914 26.7703C25.6792 26.6132 24.7166 26.0452 24.0037 25.0665C23.5973 24.5084 23.3544 23.8774 23.2748 23.1733C23.2599 23.0412 23.2525 22.8599 23.2525 22.6294C23.2525 19.2756 23.2525 15.9202 23.2525 12.5635C23.2525 12.56 23.2534 12.5567 23.2551 12.5536C23.2567 12.5506 23.2591 12.5481 23.2621 12.5462C23.265 12.5443 23.2683 12.5432 23.2718 12.5429C23.2753 12.5427 23.2787 12.5433 23.2819 12.5447C23.9921 12.8638 24.521 13.3802 24.8687 14.0937C24.8823 14.1213 24.889 14.1506 24.889 14.1815C24.889 17.0205 24.889 19.8592 24.889 22.6975C24.889 22.7595 24.8966 22.849 24.9116 22.9662C24.9244 23.0658 24.9398 23.1541 24.9578 23.2313C25.1005 23.845 25.4231 24.3321 25.9257 24.6926C26.0753 24.8 26.2342 24.8901 26.4024 24.9629C26.9254 25.1895 27.4684 25.2313 28.0315 25.0886C28.3702 25.0028 28.6785 24.8483 28.9565 24.6251C29.0977 24.5117 29.2264 24.3829 29.3427 24.2387C29.6982 23.7973 29.8806 23.2904 29.8898 22.718C29.8925 22.5334 29.8743 22.353 29.835 22.1768C29.7279 21.6976 29.4975 21.2859 29.1438 20.9417Z" fill="#EA981C"/>
<path d="M47.8322 25.5V14.7H52.0772C52.7622 14.7 53.3372 14.84 53.8022 15.12C54.2672 15.4 54.6172 15.7625 54.8522 16.2075C55.0872 16.6475 55.2047 17.1125 55.2047 17.6025C55.2047 18.1975 55.0572 18.7075 54.7622 19.1325C54.4722 19.5575 54.0797 19.8475 53.5847 20.0025L53.5697 19.635C54.2597 19.805 54.7897 20.1375 55.1597 20.6325C55.5297 21.1225 55.7147 21.695 55.7147 22.35C55.7147 22.985 55.5872 23.5375 55.3322 24.0075C55.0822 24.4775 54.7147 24.845 54.2297 25.11C53.7497 25.37 53.1672 25.5 52.4822 25.5H47.8322ZM49.4222 24.0075H52.2422C52.5972 24.0075 52.9147 23.94 53.1947 23.805C53.4797 23.67 53.7022 23.4775 53.8622 23.2275C54.0272 22.9725 54.1097 22.67 54.1097 22.32C54.1097 21.995 54.0372 21.7025 53.8922 21.4425C53.7522 21.1775 53.5472 20.97 53.2772 20.82C53.0122 20.665 52.6997 20.5875 52.3397 20.5875H49.4222V24.0075ZM49.4222 19.11H52.0547C52.3447 19.11 52.6047 19.0525 52.8347 18.9375C53.0697 18.8175 53.2547 18.6475 53.3897 18.4275C53.5297 18.2025 53.5997 17.9325 53.5997 17.6175C53.5997 17.1975 53.4597 16.8525 53.1797 16.5825C52.8997 16.3125 52.5247 16.1775 52.0547 16.1775H49.4222V19.11ZM57.3572 25.5V14.7H58.9247V24.0225H63.8147V25.5H57.3572ZM69.3026 25.725C68.2226 25.725 67.3026 25.49 66.5426 25.02C65.7826 24.545 65.2001 23.885 64.7951 23.04C64.3951 22.195 64.1951 21.215 64.1951 20.1C64.1951 18.985 64.3951 18.005 64.7951 17.16C65.2001 16.315 65.7826 15.6575 66.5426 15.1875C67.3026 14.7125 68.2226 14.475 69.3026 14.475C70.3776 14.475 71.2951 14.7125 72.0551 15.1875C72.8201 15.6575 73.4026 16.315 73.8026 17.16C74.2026 18.005 74.4026 18.985 74.4026 20.1C74.4026 21.215 74.2026 22.195 73.8026 23.04C73.4026 23.885 72.8201 24.545 72.0551 25.02C71.2951 25.49 70.3776 25.725 69.3026 25.725ZM69.3026 24.2325C70.0676 24.2425 70.7026 24.075 71.2076 23.73C71.7176 23.38 72.1001 22.895 72.3551 22.275C72.6101 21.65 72.7376 20.925 72.7376 20.1C72.7376 19.275 72.6101 18.555 72.3551 17.94C72.1001 17.32 71.7176 16.8375 71.2076 16.4925C70.7026 16.1475 70.0676 15.9725 69.3026 15.9675C68.5376 15.9575 67.9001 16.125 67.3901 16.47C66.8851 16.815 66.5051 17.3 66.2501 17.925C65.9951 18.55 65.8651 19.275 65.8601 20.1C65.8551 20.925 65.9801 21.6475 66.2351 22.2675C66.4901 22.8825 66.8726 23.3625 67.3826 23.7075C67.8976 24.0525 68.5376 24.2275 69.3026 24.2325ZM80.3161 25.725C79.5911 25.725 78.9236 25.6 78.3136 25.35C77.7036 25.095 77.1736 24.725 76.7236 24.24C76.2736 23.755 75.9236 23.165 75.6736 22.47C75.4236 21.775 75.2986 20.985 75.2986 20.1C75.2986 18.935 75.5111 17.935 75.9361 17.1C76.3611 16.26 76.9511 15.615 77.7061 15.165C78.4611 14.71 79.3311 14.4825 80.3161 14.4825C81.5861 14.4825 82.5986 14.7775 83.3536 15.3675C84.1136 15.9575 84.6311 16.7725 84.9061 17.8125L83.3161 18.0975C83.0961 17.4525 82.7411 16.9375 82.2511 16.5525C81.7611 16.1675 81.1461 15.9725 80.4061 15.9675C79.6411 15.9625 79.0036 16.1325 78.4936 16.4775C77.9886 16.8225 77.6086 17.3075 77.3536 17.9325C77.0986 18.5525 76.9686 19.275 76.9636 20.1C76.9586 20.925 77.0836 21.6475 77.3386 22.2675C77.5936 22.8825 77.9761 23.3625 78.4861 23.7075C79.0011 24.0525 79.6411 24.2275 80.4061 24.2325C81.0211 24.2425 81.5486 24.13 81.9886 23.895C82.4336 23.655 82.7861 23.305 83.0461 22.845C83.3061 22.385 83.4736 21.82 83.5486 21.15H81.4486V19.89H85.2136C85.2236 19.98 85.2311 20.1 85.2361 20.25C85.2411 20.395 85.2436 20.4875 85.2436 20.5275C85.2436 21.5275 85.0511 22.42 84.6661 23.205C84.2811 23.99 83.7211 24.6075 82.9861 25.0575C82.2511 25.5025 81.3611 25.725 80.3161 25.725ZM90.6535 25.725C89.8785 25.725 89.1785 25.5925 88.5535 25.3275C87.9335 25.0575 87.421 24.675 87.016 24.18C86.616 23.68 86.356 23.0875 86.236 22.4025L87.871 22.155C88.036 22.815 88.381 23.33 88.906 23.7C89.431 24.065 90.0435 24.2475 90.7435 24.2475C91.1785 24.2475 91.5785 24.18 91.9435 24.045C92.3085 23.905 92.601 23.7075 92.821 23.4525C93.046 23.1925 93.1585 22.8825 93.1585 22.5225C93.1585 22.3275 93.1235 22.155 93.0535 22.005C92.9885 21.855 92.896 21.725 92.776 21.615C92.661 21.5 92.5185 21.4025 92.3485 21.3225C92.1835 21.2375 92.001 21.165 91.801 21.105L89.0335 20.2875C88.7635 20.2075 88.4885 20.105 88.2085 19.98C87.9285 19.85 87.671 19.6825 87.436 19.4775C87.206 19.2675 87.0185 19.01 86.8735 18.705C86.7285 18.395 86.656 18.02 86.656 17.58C86.656 16.915 86.826 16.3525 87.166 15.8925C87.511 15.4275 87.976 15.0775 88.561 14.8425C89.146 14.6025 89.801 14.4825 90.526 14.4825C91.256 14.4925 91.9085 14.6225 92.4835 14.8725C93.0635 15.1225 93.5435 15.4825 93.9235 15.9525C94.3085 16.4175 94.5735 16.9825 94.7185 17.6475L93.0385 17.9325C92.9635 17.5275 92.8035 17.18 92.5585 16.89C92.3135 16.595 92.0135 16.37 91.6585 16.215C91.3035 16.055 90.9185 15.9725 90.5035 15.9675C90.1035 15.9575 89.736 16.0175 89.401 16.1475C89.071 16.2775 88.806 16.46 88.606 16.695C88.411 16.93 88.3135 17.2 88.3135 17.505C88.3135 17.805 88.401 18.0475 88.576 18.2325C88.751 18.4175 88.966 18.565 89.221 18.675C89.481 18.78 89.7385 18.8675 89.9935 18.9375L91.9885 19.5C92.2385 19.57 92.521 19.665 92.836 19.785C93.156 19.9 93.4635 20.0625 93.7585 20.2725C94.0585 20.4825 94.306 20.7625 94.501 21.1125C94.696 21.4575 94.7935 21.8925 94.7935 22.4175C94.7935 22.9625 94.6835 23.4425 94.4635 23.8575C94.2435 24.2675 93.941 24.6125 93.556 24.8925C93.176 25.1675 92.736 25.375 92.236 25.515C91.736 25.655 91.2085 25.725 90.6535 25.725ZM102.942 25.725C102.337 25.725 101.772 25.6375 101.247 25.4625C100.722 25.2825 100.282 25.0025 99.9272 24.6225C99.6522 24.3175 99.4472 23.9825 99.3122 23.6175C99.1822 23.2475 99.1097 22.855 99.0947 22.44C99.0947 22.035 99.1522 21.6425 99.2672 21.2625C99.3872 20.8775 99.5747 20.535 99.8297 20.235C99.9447 20.095 100.072 19.975 100.212 19.875C100.352 19.77 100.492 19.6775 100.632 19.5975C100.312 19.2475 100.07 18.915 99.9047 18.6C99.7397 18.28 99.6572 17.9025 99.6572 17.4675C99.6572 16.8575 99.8172 16.31 100.137 15.825C100.457 15.335 100.895 14.9825 101.45 14.7675C101.705 14.6625 101.965 14.5925 102.23 14.5575C102.495 14.5175 102.752 14.4975 103.002 14.4975C103.452 14.4975 103.887 14.5625 104.307 14.6925C104.727 14.8225 105.087 15.035 105.387 15.33C105.577 15.505 105.737 15.7025 105.867 15.9225C106.002 16.1425 106.105 16.3675 106.175 16.5975L104.63 16.9575C104.545 16.7175 104.405 16.515 104.21 16.35C104.045 16.205 103.852 16.1075 103.632 16.0575C103.417 16.0025 103.202 15.975 102.987 15.975C102.632 15.975 102.312 16.0425 102.027 16.1775C101.767 16.3025 101.572 16.475 101.442 16.695C101.312 16.91 101.247 17.17 101.247 17.475C101.247 17.745 101.295 17.9625 101.39 18.1275C101.485 18.2925 101.612 18.465 101.772 18.645C101.867 18.75 101.98 18.8625 102.11 18.9825C102.245 19.1025 102.382 19.2275 102.522 19.3575L105.462 22.095C105.472 21.985 105.48 21.8675 105.485 21.7425C105.49 21.6175 105.492 21.4975 105.492 21.3825L105.485 19.98H106.887V21.8325C106.887 22.1475 106.877 22.4325 106.857 22.6875C106.842 22.9375 106.812 23.1425 106.767 23.3025L108.117 24.555L107.105 25.6425L106.017 24.6075C105.787 24.8375 105.53 25.0325 105.245 25.1925C104.96 25.3475 104.672 25.4625 104.382 25.5375C104.137 25.6125 103.895 25.6625 103.655 25.6875C103.42 25.7125 103.182 25.725 102.942 25.725ZM102.987 24.225C103.187 24.225 103.372 24.215 103.542 24.195C103.712 24.17 103.875 24.125 104.03 24.06C104.24 23.975 104.41 23.8875 104.54 23.7975C104.675 23.7075 104.787 23.62 104.877 23.535L101.802 20.715C101.647 20.77 101.502 20.8425 101.367 20.9325C101.237 21.0175 101.125 21.1175 101.03 21.2325C100.915 21.3775 100.827 21.5475 100.767 21.7425C100.712 21.9325 100.687 22.1375 100.692 22.3575C100.692 22.5975 100.73 22.8175 100.805 23.0175C100.885 23.2125 100.987 23.3875 101.112 23.5425C101.312 23.7825 101.59 23.9575 101.945 24.0675C102.305 24.1725 102.652 24.225 102.987 24.225ZM112.329 25.5V14.7H113.919L119.237 22.725V14.7H120.827V25.5H119.237L113.919 17.4675V25.5H112.329ZM122.92 25.5V14.7H129.82V16.1775H124.488V19.2075H128.92V20.685H124.488V24.0225H129.82V25.5H122.92ZM133.909 25.5L130.774 14.7H132.416L134.689 22.8675L136.961 14.7075L138.611 14.7L140.884 22.8675L143.156 14.7H144.806L141.664 25.5H140.104L137.786 17.4225L135.469 25.5H133.909ZM149.687 25.725C148.912 25.725 148.212 25.5925 147.587 25.3275C146.967 25.0575 146.454 24.675 146.049 24.18C145.649 23.68 145.389 23.0875 145.269 22.4025L146.904 22.155C147.069 22.815 147.414 23.33 147.939 23.7C148.464 24.065 149.077 24.2475 149.777 24.2475C150.212 24.2475 150.612 24.18 150.977 24.045C151.342 23.905 151.634 23.7075 151.854 23.4525C152.079 23.1925 152.192 22.8825 152.192 22.5225C152.192 22.3275 152.157 22.155 152.087 22.005C152.022 21.855 151.929 21.725 151.809 21.615C151.694 21.5 151.552 21.4025 151.382 21.3225C151.217 21.2375 151.034 21.165 150.834 21.105L148.067 20.2875C147.797 20.2075 147.522 20.105 147.242 19.98C146.962 19.85 146.704 19.6825 146.469 19.4775C146.239 19.2675 146.052 19.01 145.907 18.705C145.762 18.395 145.689 18.02 145.689 17.58C145.689 16.915 145.859 16.3525 146.199 15.8925C146.544 15.4275 147.009 15.0775 147.594 14.8425C148.179 14.6025 148.834 14.4825 149.559 14.4825C150.289 14.4925 150.942 14.6225 151.517 14.8725C152.097 15.1225 152.577 15.4825 152.957 15.9525C153.342 16.4175 153.607 16.9825 153.752 17.6475L152.072 17.9325C151.997 17.5275 151.837 17.18 151.592 16.89C151.347 16.595 151.047 16.37 150.692 16.215C150.337 16.055 149.952 15.9725 149.537 15.9675C149.137 15.9575 148.769 16.0175 148.434 16.1475C148.104 16.2775 147.839 16.46 147.639 16.695C147.444 16.93 147.347 17.2 147.347 17.505C147.347 17.805 147.434 18.0475 147.609 18.2325C147.784 18.4175 147.999 18.565 148.254 18.675C148.514 18.78 148.772 18.8675 149.027 18.9375L151.022 19.5C151.272 19.57 151.554 19.665 151.869 19.785C152.189 19.9 152.497 20.0625 152.792 20.2725C153.092 20.4825 153.339 20.7625 153.534 21.1125C153.729 21.4575 153.827 21.8925 153.827 22.4175C153.827 22.9625 153.717 23.4425 153.497 23.8575C153.277 24.2675 152.974 24.6125 152.589 24.8925C152.209 25.1675 151.769 25.375 151.269 25.515C150.769 25.655 150.242 25.725 149.687 25.725Z" fill="#EA981C"/>
</svg>
