<svg width="208" height="44" viewBox="0 0 208 44" fill="none" xmlns="http://www.w3.org/2000/svg">
<rect width="207.783" height="44" rx="2" fill="white" fill-opacity="0.06"/>
<path d="M20 12C20.0167 12 20.0333 12 20.0498 12C20.749 12.3184 21.2678 12.8172 21.6063 13.4962C21.6254 13.5343 21.6349 13.5755 21.6349 13.6196C21.6367 16.9738 21.6373 20.3282 21.6366 23.6826C21.6366 23.8918 21.6377 24.0734 21.6399 24.2272C21.6455 24.6015 21.6536 24.8695 21.6641 25.0313C21.7394 26.1974 22.1349 27.2409 22.8504 28.1619C23.2703 28.7021 23.7579 29.1453 24.3131 29.4916C25.3821 30.1579 26.5509 30.448 27.8195 30.3621C28.0039 30.3496 28.1858 30.3276 28.3652 30.2962C29.4115 30.1131 30.3362 29.6807 31.1393 28.9989C31.277 28.8819 31.4097 28.7567 31.5373 28.6232C32.524 27.5906 33.0554 26.3569 33.1315 24.9221C33.1413 24.7406 33.1397 24.5591 33.1269 24.3777C33.0249 22.9255 32.46 21.69 31.4323 20.6711C31.3012 20.5411 31.1652 20.4194 31.0244 20.3063C30.1954 19.6391 29.2497 19.2292 28.1875 19.0768C28.0028 19.0503 27.8204 19.0336 27.6401 19.0267C27.3486 19.0158 27.0573 19.0263 26.7663 19.0583C26.6863 19.0672 26.599 19.074 26.5042 19.0787C26.5016 19.0789 26.4991 19.0785 26.4967 19.0776C26.4943 19.0768 26.4921 19.0754 26.4902 19.0736C26.4884 19.0719 26.4869 19.0698 26.4859 19.0674C26.4849 19.065 26.4843 19.0625 26.4844 19.0599V17.4632C26.4843 17.4567 26.4868 17.4503 26.4913 17.4454C26.4957 17.4405 26.5019 17.4375 26.5086 17.4368C26.8725 17.401 27.2404 17.3881 27.6121 17.3981C28.5293 17.4226 29.4074 17.6083 30.2465 17.955C30.4128 18.0237 30.579 18.1002 30.7449 18.1845C31.9966 18.821 32.9888 19.7335 33.7215 20.9221C33.8182 21.079 33.9075 21.2376 33.9894 21.3978C34.4526 22.3037 34.7129 23.2629 34.7703 24.2752C34.8446 25.584 34.583 26.8262 33.9856 28.0019C33.6718 28.6195 33.2853 29.1694 32.8259 29.6515C32.7016 29.7821 32.6237 29.8661 32.5922 29.9035C32.5852 29.9121 32.5726 29.9212 32.5545 29.9308C32.5396 29.9388 32.5273 29.9477 32.5176 29.9575C32.3627 30.1143 32.1982 30.2607 32.0242 30.3967C30.7952 31.3582 29.395 31.8926 27.8236 32C27.5599 32 27.2963 32 27.0328 32C25.5468 31.9168 24.2114 31.4486 23.0267 30.5954C22.8776 30.488 22.7337 30.3756 22.5951 30.258C21.9181 29.6844 21.3654 29.0179 20.9368 28.2586C20.3293 27.1814 20.0215 26.0148 20.0135 24.7589C20.0126 24.6219 20.0081 24.4851 20 24.3485C20 20.2322 20 16.1161 20 12Z" fill="white"/>
<path d="M29.1438 22.9417C28.7769 22.5847 28.341 22.3601 27.8362 22.2678C27.6543 22.2346 27.472 22.2226 27.2892 22.2319C27.0275 22.245 26.7699 22.2951 26.5165 22.3823C26.5129 22.3835 26.509 22.3839 26.5052 22.3834C26.5013 22.3828 26.4977 22.3814 26.4946 22.3792C26.4914 22.377 26.4888 22.3741 26.4871 22.3707C26.4853 22.3673 26.4844 22.3635 26.4844 22.3597V20.7259C26.4844 20.7138 26.4888 20.7021 26.4968 20.693C26.5049 20.6839 26.516 20.6779 26.5281 20.6763C26.6284 20.6625 26.7381 20.6479 26.8573 20.6324C27.2512 20.581 27.6442 20.5866 28.0362 20.649C28.9789 20.7991 29.7653 21.2045 30.3953 21.8654C31.0175 22.5179 31.3871 23.2848 31.5041 24.1662C31.588 24.7991 31.5239 25.4258 31.3115 26.0463C31.1113 26.6312 30.7843 27.1485 30.3307 27.5981C30.2016 27.7262 30.0634 27.8455 29.9162 27.9561C29.1884 28.5027 28.3631 28.7844 27.4404 28.8011C27.2589 28.8044 27.0759 28.7941 26.8914 28.7703C25.6792 28.6132 24.7166 28.0452 24.0037 27.0665C23.5973 26.5084 23.3544 25.8774 23.2748 25.1733C23.2599 25.0412 23.2525 24.8599 23.2525 24.6294C23.2525 21.2756 23.2525 17.9202 23.2525 14.5635C23.2525 14.56 23.2534 14.5567 23.2551 14.5536C23.2567 14.5506 23.2591 14.5481 23.2621 14.5462C23.265 14.5443 23.2683 14.5432 23.2718 14.5429C23.2753 14.5427 23.2787 14.5433 23.2819 14.5447C23.9921 14.8638 24.521 15.3802 24.8687 16.0937C24.8823 16.1213 24.889 16.1506 24.889 16.1815C24.889 19.0205 24.889 21.8592 24.889 24.6975C24.889 24.7595 24.8966 24.849 24.9116 24.9662C24.9244 25.0658 24.9398 25.1541 24.9578 25.2313C25.1005 25.845 25.4231 26.3321 25.9257 26.6926C26.0753 26.8 26.2342 26.8901 26.4024 26.9629C26.9254 27.1895 27.4684 27.2313 28.0315 27.0886C28.3702 27.0028 28.6785 26.8483 28.9565 26.6251C29.0977 26.5117 29.2264 26.3829 29.3427 26.2387C29.6982 25.7973 29.8806 25.2904 29.8898 24.718C29.8925 24.5334 29.8743 24.353 29.835 24.1768C29.7279 23.6976 29.4975 23.2859 29.1438 22.9417Z" fill="white"/>
<path d="M52.3397 27.725C51.2597 27.725 50.3397 27.49 49.5797 27.02C48.8197 26.545 48.2372 25.885 47.8322 25.04C47.4322 24.195 47.2322 23.215 47.2322 22.1C47.2322 20.985 47.4322 20.005 47.8322 19.16C48.2372 18.315 48.8197 17.6575 49.5797 17.1875C50.3397 16.7125 51.2597 16.475 52.3397 16.475C53.5847 16.475 54.6147 16.79 55.4297 17.42C56.2497 18.05 56.8197 18.8975 57.1397 19.9625L55.5497 20.39C55.3397 19.635 54.9647 19.0425 54.4247 18.6125C53.8897 18.1825 53.1947 17.9675 52.3397 17.9675C51.5747 17.9675 50.9372 18.14 50.4272 18.485C49.9172 18.83 49.5322 19.3125 49.2722 19.9325C49.0172 20.5525 48.8897 21.275 48.8897 22.1C48.8847 22.925 49.0097 23.6475 49.2647 24.2675C49.5247 24.8875 49.9097 25.37 50.4197 25.715C50.9347 26.06 51.5747 26.2325 52.3397 26.2325C53.1947 26.2325 53.8897 26.0175 54.4247 25.5875C54.9647 25.1525 55.3397 24.56 55.5497 23.81L57.1397 24.2375C56.8197 25.3025 56.2497 26.15 55.4297 26.78C54.6147 27.41 53.5847 27.725 52.3397 27.725ZM63.2968 27.725C62.2168 27.725 61.2968 27.49 60.5368 27.02C59.7768 26.545 59.1943 25.885 58.7893 25.04C58.3893 24.195 58.1893 23.215 58.1893 22.1C58.1893 20.985 58.3893 20.005 58.7893 19.16C59.1943 18.315 59.7768 17.6575 60.5368 17.1875C61.2968 16.7125 62.2168 16.475 63.2968 16.475C64.3718 16.475 65.2893 16.7125 66.0493 17.1875C66.8143 17.6575 67.3968 18.315 67.7968 19.16C68.1968 20.005 68.3968 20.985 68.3968 22.1C68.3968 23.215 68.1968 24.195 67.7968 25.04C67.3968 25.885 66.8143 26.545 66.0493 27.02C65.2893 27.49 64.3718 27.725 63.2968 27.725ZM63.2968 26.2325C64.0618 26.2425 64.6968 26.075 65.2018 25.73C65.7118 25.38 66.0943 24.895 66.3493 24.275C66.6043 23.65 66.7318 22.925 66.7318 22.1C66.7318 21.275 66.6043 20.555 66.3493 19.94C66.0943 19.32 65.7118 18.8375 65.2018 18.4925C64.6968 18.1475 64.0618 17.9725 63.2968 17.9675C62.5318 17.9575 61.8943 18.125 61.3843 18.47C60.8793 18.815 60.4993 19.3 60.2443 19.925C59.9893 20.55 59.8593 21.275 59.8543 22.1C59.8493 22.925 59.9743 23.6475 60.2293 24.2675C60.4843 24.8825 60.8668 25.3625 61.3768 25.7075C61.8918 26.0525 62.5318 26.2275 63.2968 26.2325ZM69.8928 27.5V16.7H71.3103L75.2253 24.8225L79.1178 16.7H80.5503V27.4925H79.0653V20.105L75.5778 27.5H74.8653L71.3703 20.105V27.5H69.8928ZM82.6516 27.5V16.7H87.0166C87.1216 16.7 87.2516 16.705 87.4066 16.715C87.5616 16.72 87.7091 16.735 87.8491 16.76C88.4491 16.855 88.9491 17.06 89.3491 17.375C89.7541 17.69 90.0566 18.0875 90.2566 18.5675C90.4566 19.0475 90.5566 19.5775 90.5566 20.1575C90.5566 20.7425 90.4566 21.275 90.2566 21.755C90.0566 22.235 89.7541 22.6325 89.3491 22.9475C88.9491 23.2625 88.4491 23.4675 87.8491 23.5625C87.7091 23.5825 87.5591 23.5975 87.3991 23.6075C87.2441 23.6175 87.1166 23.6225 87.0166 23.6225H84.2191V27.5H82.6516ZM84.2191 22.1375H86.9566C87.0566 22.1375 87.1666 22.1325 87.2866 22.1225C87.4116 22.1125 87.5291 22.095 87.6391 22.07C87.9591 21.995 88.2166 21.8575 88.4116 21.6575C88.6066 21.4525 88.7466 21.2175 88.8316 20.9525C88.9166 20.6875 88.9591 20.4225 88.9591 20.1575C88.9591 19.8925 88.9166 19.63 88.8316 19.37C88.7466 19.105 88.6066 18.8725 88.4116 18.6725C88.2166 18.4675 87.9591 18.3275 87.6391 18.2525C87.5291 18.2225 87.4116 18.2025 87.2866 18.1925C87.1666 18.1825 87.0566 18.1775 86.9566 18.1775H84.2191V22.1375ZM90.5588 27.5L94.0688 16.7H96.3263L99.8363 27.5H98.2088L94.9763 17.645H95.3813L92.1863 27.5H90.5588ZM92.3813 25.0625V23.5925H98.0213V25.0625H92.3813ZM101.182 27.5V16.7H105.547C105.652 16.7 105.782 16.705 105.937 16.715C106.092 16.72 106.239 16.735 106.379 16.76C106.979 16.855 107.479 17.06 107.879 17.375C108.284 17.69 108.587 18.0875 108.787 18.5675C108.987 19.0475 109.087 19.5775 109.087 20.1575C109.087 21.0175 108.867 21.76 108.427 22.385C107.987 23.005 107.327 23.3925 106.447 23.5475L105.809 23.6225H102.749V27.5H101.182ZM107.497 27.5L105.367 23.105L106.949 22.7L109.289 27.5H107.497ZM102.749 22.1375H105.487C105.587 22.1375 105.697 22.1325 105.817 22.1225C105.942 22.1125 106.059 22.095 106.169 22.07C106.489 21.995 106.747 21.8575 106.942 21.6575C107.137 21.4525 107.277 21.2175 107.362 20.9525C107.447 20.6875 107.489 20.4225 107.489 20.1575C107.489 19.8925 107.447 19.63 107.362 19.37C107.277 19.105 107.137 18.8725 106.942 18.6725C106.747 18.4675 106.489 18.3275 106.169 18.2525C106.059 18.2225 105.942 18.2025 105.817 18.1925C105.697 18.1825 105.587 18.1775 105.487 18.1775H102.749V22.1375ZM111.088 27.5V16.7H112.655V27.5H111.088ZM118.822 27.725C118.047 27.725 117.347 27.5925 116.722 27.3275C116.102 27.0575 115.59 26.675 115.185 26.18C114.785 25.68 114.525 25.0875 114.405 24.4025L116.04 24.155C116.205 24.815 116.55 25.33 117.075 25.7C117.6 26.065 118.212 26.2475 118.912 26.2475C119.347 26.2475 119.747 26.18 120.112 26.045C120.477 25.905 120.77 25.7075 120.99 25.4525C121.215 25.1925 121.327 24.8825 121.327 24.5225C121.327 24.3275 121.292 24.155 121.222 24.005C121.157 23.855 121.065 23.725 120.945 23.615C120.83 23.5 120.687 23.4025 120.517 23.3225C120.352 23.2375 120.17 23.165 119.97 23.105L117.202 22.2875C116.932 22.2075 116.657 22.105 116.377 21.98C116.097 21.85 115.84 21.6825 115.605 21.4775C115.375 21.2675 115.187 21.01 115.042 20.705C114.897 20.395 114.825 20.02 114.825 19.58C114.825 18.915 114.995 18.3525 115.335 17.8925C115.68 17.4275 116.145 17.0775 116.73 16.8425C117.315 16.6025 117.97 16.4825 118.695 16.4825C119.425 16.4925 120.077 16.6225 120.652 16.8725C121.232 17.1225 121.712 17.4825 122.092 17.9525C122.477 18.4175 122.742 18.9825 122.887 19.6475L121.207 19.9325C121.132 19.5275 120.972 19.18 120.727 18.89C120.482 18.595 120.182 18.37 119.827 18.215C119.472 18.055 119.087 17.9725 118.672 17.9675C118.272 17.9575 117.905 18.0175 117.57 18.1475C117.24 18.2775 116.975 18.46 116.775 18.695C116.58 18.93 116.482 19.2 116.482 19.505C116.482 19.805 116.57 20.0475 116.745 20.2325C116.92 20.4175 117.135 20.565 117.39 20.675C117.65 20.78 117.907 20.8675 118.162 20.9375L120.157 21.5C120.407 21.57 120.69 21.665 121.005 21.785C121.325 21.9 121.632 22.0625 121.927 22.2725C122.227 22.4825 122.475 22.7625 122.67 23.1125C122.865 23.4575 122.962 23.8925 122.962 24.4175C122.962 24.9625 122.852 25.4425 122.632 25.8575C122.412 26.2675 122.11 26.6125 121.725 26.8925C121.345 27.1675 120.905 27.375 120.405 27.515C119.905 27.655 119.377 27.725 118.822 27.725ZM129.068 27.725C127.988 27.725 127.068 27.49 126.308 27.02C125.548 26.545 124.966 25.885 124.561 25.04C124.161 24.195 123.961 23.215 123.961 22.1C123.961 20.985 124.161 20.005 124.561 19.16C124.966 18.315 125.548 17.6575 126.308 17.1875C127.068 16.7125 127.988 16.475 129.068 16.475C130.143 16.475 131.061 16.7125 131.821 17.1875C132.586 17.6575 133.168 18.315 133.568 19.16C133.968 20.005 134.168 20.985 134.168 22.1C134.168 23.215 133.968 24.195 133.568 25.04C133.168 25.885 132.586 26.545 131.821 27.02C131.061 27.49 130.143 27.725 129.068 27.725ZM129.068 26.2325C129.833 26.2425 130.468 26.075 130.973 25.73C131.483 25.38 131.866 24.895 132.121 24.275C132.376 23.65 132.503 22.925 132.503 22.1C132.503 21.275 132.376 20.555 132.121 19.94C131.866 19.32 131.483 18.8375 130.973 18.4925C130.468 18.1475 129.833 17.9725 129.068 17.9675C128.303 17.9575 127.666 18.125 127.156 18.47C126.651 18.815 126.271 19.3 126.016 19.925C125.761 20.55 125.631 21.275 125.626 22.1C125.621 22.925 125.746 23.6475 126.001 24.2675C126.256 24.8825 126.638 25.3625 127.148 25.7075C127.663 26.0525 128.303 26.2275 129.068 26.2325ZM135.664 27.5V16.7H137.254L142.572 24.725V16.7H144.162V27.5H142.572L137.254 19.4675V27.5H135.664ZM151.951 27.5V18.1775H148.358V16.7H157.111V18.1775H153.518V27.5H151.951ZM162.818 27.725C161.738 27.725 160.818 27.49 160.058 27.02C159.298 26.545 158.716 25.885 158.311 25.04C157.911 24.195 157.711 23.215 157.711 22.1C157.711 20.985 157.911 20.005 158.311 19.16C158.716 18.315 159.298 17.6575 160.058 17.1875C160.818 16.7125 161.738 16.475 162.818 16.475C163.893 16.475 164.811 16.7125 165.571 17.1875C166.336 17.6575 166.918 18.315 167.318 19.16C167.718 20.005 167.918 20.985 167.918 22.1C167.918 23.215 167.718 24.195 167.318 25.04C166.918 25.885 166.336 26.545 165.571 27.02C164.811 27.49 163.893 27.725 162.818 27.725ZM162.818 26.2325C163.583 26.2425 164.218 26.075 164.723 25.73C165.233 25.38 165.616 24.895 165.871 24.275C166.126 23.65 166.253 22.925 166.253 22.1C166.253 21.275 166.126 20.555 165.871 19.94C165.616 19.32 165.233 18.8375 164.723 18.4925C164.218 18.1475 163.583 17.9725 162.818 17.9675C162.053 17.9575 161.416 18.125 160.906 18.47C160.401 18.815 160.021 19.3 159.766 19.925C159.511 20.55 159.381 21.275 159.376 22.1C159.371 22.925 159.496 23.6475 159.751 24.2675C160.006 24.8825 160.388 25.3625 160.898 25.7075C161.413 26.0525 162.053 26.2275 162.818 26.2325ZM173.922 27.725C172.842 27.725 171.922 27.49 171.162 27.02C170.402 26.545 169.819 25.885 169.414 25.04C169.014 24.195 168.814 23.215 168.814 22.1C168.814 20.985 169.014 20.005 169.414 19.16C169.819 18.315 170.402 17.6575 171.162 17.1875C171.922 16.7125 172.842 16.475 173.922 16.475C174.997 16.475 175.914 16.7125 176.674 17.1875C177.439 17.6575 178.022 18.315 178.422 19.16C178.822 20.005 179.022 20.985 179.022 22.1C179.022 23.215 178.822 24.195 178.422 25.04C178.022 25.885 177.439 26.545 176.674 27.02C175.914 27.49 174.997 27.725 173.922 27.725ZM173.922 26.2325C174.687 26.2425 175.322 26.075 175.827 25.73C176.337 25.38 176.719 24.895 176.974 24.275C177.229 23.65 177.357 22.925 177.357 22.1C177.357 21.275 177.229 20.555 176.974 19.94C176.719 19.32 176.337 18.8375 175.827 18.4925C175.322 18.1475 174.687 17.9725 173.922 17.9675C173.157 17.9575 172.519 18.125 172.009 18.47C171.504 18.815 171.124 19.3 170.869 19.925C170.614 20.55 170.484 21.275 170.479 22.1C170.474 22.925 170.599 23.6475 170.854 24.2675C171.109 24.8825 171.492 25.3625 172.002 25.7075C172.517 26.0525 173.157 26.2275 173.922 26.2325ZM180.668 27.5V16.7H182.235V26.0225H187.125V27.5H180.668Z" fill="white"/>
</svg>
