<svg width="64" height="64" viewBox="0 0 64 64" fill="none" xmlns="http://www.w3.org/2000/svg">
<rect width="64" height="64" rx="2" fill="white" fill-opacity="0.1"/>
<g clip-path="url(#clip0_29_2596)">
<path d="M37.7115 42.5438C40.3804 42.5438 42.544 40.3802 42.544 37.7112C42.544 35.0423 40.3804 32.8787 37.7115 32.8787C35.0425 32.8787 32.8789 35.0423 32.8789 37.7112C32.8789 40.3802 35.0425 42.5438 37.7115 42.5438Z" stroke="white" stroke-width="2" stroke-miterlimit="10" stroke-linecap="round" stroke-linejoin="round"/>
<path d="M26.2886 31.1214C28.9576 31.1214 31.1212 28.9578 31.1212 26.2889C31.1212 23.6199 28.9576 21.4563 26.2886 21.4563C23.6197 21.4563 21.4561 23.6199 21.4561 26.2889C21.4561 28.9578 23.6197 31.1214 26.2886 31.1214Z" stroke="white" stroke-width="2" stroke-miterlimit="10" stroke-linecap="round" stroke-linejoin="round"/>
<path d="M45.1799 37.7112H42.5439" stroke="white" stroke-width="2" stroke-miterlimit="10" stroke-linecap="round" stroke-linejoin="round"/>
<path d="M18.8203 26.2888H21.4563" stroke="white" stroke-width="2" stroke-miterlimit="10" stroke-linecap="round" stroke-linejoin="round"/>
<path d="M32.8787 37.7112H18.8203" stroke="white" stroke-width="2" stroke-miterlimit="10" stroke-linecap="round" stroke-linejoin="round"/>
<path d="M31.1211 26.2888H45.1794" stroke="white" stroke-width="2" stroke-miterlimit="10" stroke-linecap="round" stroke-linejoin="round"/>
</g>
<defs>
<clipPath id="clip0_29_2596">
<rect width="28" height="28" fill="white" transform="translate(18 18)"/>
</clipPath>
</defs>
</svg>
