<svg width="213" height="44" viewBox="0 0 213 44" fill="none" xmlns="http://www.w3.org/2000/svg">
<rect width="212.783" height="44" rx="2" fill="white" fill-opacity="0.06"/>
<path d="M20 12C20.0167 12 20.0333 12 20.0498 12C20.749 12.3184 21.2678 12.8172 21.6063 13.4962C21.6254 13.5343 21.6349 13.5755 21.6349 13.6196C21.6367 16.9738 21.6373 20.3282 21.6366 23.6826C21.6366 23.8918 21.6377 24.0734 21.6399 24.2272C21.6455 24.6015 21.6536 24.8695 21.6641 25.0313C21.7394 26.1974 22.1349 27.2409 22.8504 28.1619C23.2703 28.7021 23.7579 29.1453 24.3131 29.4916C25.3821 30.1579 26.5509 30.448 27.8195 30.3621C28.0039 30.3496 28.1858 30.3276 28.3652 30.2962C29.4115 30.1131 30.3362 29.6807 31.1393 28.9989C31.277 28.8819 31.4097 28.7567 31.5373 28.6232C32.524 27.5906 33.0554 26.3569 33.1315 24.9221C33.1413 24.7406 33.1397 24.5591 33.1269 24.3777C33.0249 22.9255 32.46 21.69 31.4323 20.6711C31.3012 20.5411 31.1652 20.4194 31.0244 20.3063C30.1954 19.6391 29.2497 19.2292 28.1875 19.0768C28.0028 19.0503 27.8204 19.0336 27.6401 19.0267C27.3486 19.0158 27.0573 19.0263 26.7663 19.0583C26.6863 19.0672 26.599 19.074 26.5042 19.0787C26.5016 19.0789 26.4991 19.0785 26.4967 19.0776C26.4943 19.0768 26.4921 19.0754 26.4902 19.0736C26.4884 19.0719 26.4869 19.0698 26.4859 19.0674C26.4849 19.065 26.4843 19.0625 26.4844 19.0599V17.4632C26.4843 17.4567 26.4868 17.4503 26.4913 17.4454C26.4957 17.4405 26.5019 17.4375 26.5086 17.4368C26.8725 17.401 27.2404 17.3881 27.6121 17.3981C28.5293 17.4226 29.4074 17.6083 30.2465 17.955C30.4128 18.0237 30.579 18.1002 30.7449 18.1845C31.9966 18.821 32.9888 19.7335 33.7215 20.9221C33.8182 21.079 33.9075 21.2376 33.9894 21.3978C34.4526 22.3037 34.7129 23.2629 34.7703 24.2752C34.8446 25.584 34.583 26.8262 33.9856 28.0019C33.6718 28.6195 33.2853 29.1694 32.8259 29.6515C32.7016 29.7821 32.6237 29.8661 32.5922 29.9035C32.5852 29.9121 32.5726 29.9212 32.5545 29.9308C32.5396 29.9388 32.5273 29.9477 32.5176 29.9575C32.3627 30.1143 32.1982 30.2607 32.0242 30.3967C30.7952 31.3582 29.395 31.8926 27.8236 32C27.5599 32 27.2963 32 27.0328 32C25.5468 31.9168 24.2114 31.4486 23.0267 30.5954C22.8776 30.488 22.7337 30.3756 22.5951 30.258C21.9181 29.6844 21.3654 29.0179 20.9368 28.2586C20.3293 27.1814 20.0215 26.0148 20.0135 24.7589C20.0126 24.6219 20.0081 24.4851 20 24.3485C20 20.2322 20 16.1161 20 12Z" fill="white"/>
<path d="M29.1438 22.9417C28.7769 22.5847 28.341 22.3601 27.8362 22.2678C27.6543 22.2346 27.472 22.2226 27.2892 22.2319C27.0275 22.245 26.7699 22.2951 26.5165 22.3823C26.5129 22.3835 26.509 22.3839 26.5052 22.3834C26.5013 22.3828 26.4977 22.3814 26.4946 22.3792C26.4914 22.377 26.4888 22.3741 26.4871 22.3707C26.4853 22.3673 26.4844 22.3635 26.4844 22.3597V20.7259C26.4844 20.7138 26.4888 20.7021 26.4968 20.693C26.5049 20.6839 26.516 20.6779 26.5281 20.6763C26.6284 20.6625 26.7381 20.6479 26.8573 20.6324C27.2512 20.581 27.6442 20.5866 28.0362 20.649C28.9789 20.7991 29.7653 21.2045 30.3953 21.8654C31.0175 22.5179 31.3871 23.2848 31.5041 24.1662C31.588 24.7991 31.5239 25.4258 31.3115 26.0463C31.1113 26.6312 30.7843 27.1485 30.3307 27.5981C30.2016 27.7262 30.0634 27.8455 29.9162 27.9561C29.1884 28.5027 28.3631 28.7844 27.4404 28.8011C27.2589 28.8044 27.0759 28.7941 26.8914 28.7703C25.6792 28.6132 24.7166 28.0452 24.0037 27.0665C23.5973 26.5084 23.3544 25.8774 23.2748 25.1733C23.2599 25.0412 23.2525 24.8599 23.2525 24.6294C23.2525 21.2756 23.2525 17.9202 23.2525 14.5635C23.2525 14.56 23.2534 14.5567 23.2551 14.5536C23.2567 14.5506 23.2591 14.5481 23.2621 14.5462C23.265 14.5443 23.2683 14.5432 23.2718 14.5429C23.2753 14.5427 23.2787 14.5433 23.2819 14.5447C23.9921 14.8638 24.521 15.3802 24.8687 16.0937C24.8823 16.1213 24.889 16.1506 24.889 16.1815C24.889 19.0205 24.889 21.8592 24.889 24.6975C24.889 24.7595 24.8966 24.849 24.9116 24.9662C24.9244 25.0658 24.9398 25.1541 24.9578 25.2313C25.1005 25.845 25.4231 26.3321 25.9257 26.6926C26.0753 26.8 26.2342 26.8901 26.4024 26.9629C26.9254 27.1895 27.4684 27.2313 28.0315 27.0886C28.3702 27.0028 28.6785 26.8483 28.9565 26.6251C29.0977 26.5117 29.2264 26.3829 29.3427 26.2387C29.6982 25.7973 29.8806 25.2904 29.8898 24.718C29.8925 24.5334 29.8743 24.353 29.835 24.1768C29.7279 23.6976 29.4975 23.2859 29.1438 22.9417Z" fill="white"/>
<path d="M47.9822 27.5V16.7H49.5497V26.0225H54.4397V27.5H47.9822ZM55.8631 27.5V16.7H57.4306V27.5H55.8631ZM59.6828 27.5V16.7H61.1003L65.0153 24.8225L68.9078 16.7H70.3403V27.4925H68.8553V20.105L65.3678 27.5H64.6553L61.1603 20.105V27.5H59.6828ZM72.5916 27.5V16.7H74.1591V27.5H72.5916ZM79.1038 27.5V18.1775H75.5113V16.7H84.2638V18.1775H80.6713V27.5H79.1038ZM85.4641 27.5V16.7H92.3641V18.1775H87.0316V21.2075H91.4641V22.685H87.0316V26.0225H92.3641V27.5H85.4641ZM94.1652 27.5V16.7H97.5477C97.6477 16.7 97.8327 16.7025 98.1027 16.7075C98.3777 16.7125 98.6402 16.7325 98.8902 16.7675C99.7352 16.8725 100.445 17.175 101.02 17.675C101.6 18.175 102.038 18.81 102.333 19.58C102.628 20.345 102.775 21.185 102.775 22.1C102.775 23.02 102.628 23.865 102.333 24.635C102.038 25.4 101.6 26.0325 101.02 26.5325C100.445 27.0275 99.7352 27.3275 98.8902 27.4325C98.6402 27.4675 98.3777 27.4875 98.1027 27.4925C97.8327 27.4975 97.6477 27.5 97.5477 27.5H94.1652ZM95.7702 26.0075H97.5477C97.7177 26.0075 97.9202 26.0025 98.1552 25.9925C98.3902 25.9825 98.5977 25.9625 98.7777 25.9325C99.3277 25.8275 99.7727 25.59 100.113 25.22C100.458 24.845 100.71 24.385 100.87 23.84C101.03 23.295 101.11 22.715 101.11 22.1C101.11 21.465 101.028 20.8775 100.863 20.3375C100.698 19.7925 100.443 19.3375 100.098 18.9725C99.7577 18.6025 99.3177 18.3675 98.7777 18.2675C98.5977 18.2325 98.3877 18.2125 98.1477 18.2075C97.9127 18.1975 97.7127 18.1925 97.5477 18.1925H95.7702V26.0075ZM104.372 22.7225V21.4625H108.872V22.7225H104.372ZM113.513 27.5V18.1775H109.921V16.7H118.673V18.1775H115.081V27.5H113.513ZM120.023 27.5V16.7H121.591V27.5H120.023ZM123.843 27.5V16.7H125.26L129.175 24.8225L133.068 16.7H134.5V27.4925H133.015V20.105L129.528 27.5H128.815L125.32 20.105V27.5H123.843ZM136.602 27.5V16.7H143.502V18.1775H138.169V21.2075H142.602V22.685H138.169V26.0225H143.502V27.5H136.602ZM152.813 27.725C151.733 27.725 150.813 27.49 150.053 27.02C149.293 26.545 148.711 25.885 148.306 25.04C147.906 24.195 147.706 23.215 147.706 22.1C147.706 20.985 147.906 20.005 148.306 19.16C148.711 18.315 149.293 17.6575 150.053 17.1875C150.813 16.7125 151.733 16.475 152.813 16.475C153.888 16.475 154.806 16.7125 155.566 17.1875C156.331 17.6575 156.913 18.315 157.313 19.16C157.713 20.005 157.913 20.985 157.913 22.1C157.913 23.215 157.713 24.195 157.313 25.04C156.913 25.885 156.331 26.545 155.566 27.02C154.806 27.49 153.888 27.725 152.813 27.725ZM152.813 26.2325C153.578 26.2425 154.213 26.075 154.718 25.73C155.228 25.38 155.611 24.895 155.866 24.275C156.121 23.65 156.248 22.925 156.248 22.1C156.248 21.275 156.121 20.555 155.866 19.94C155.611 19.32 155.228 18.8375 154.718 18.4925C154.213 18.1475 153.578 17.9725 152.813 17.9675C152.048 17.9575 151.411 18.125 150.901 18.47C150.396 18.815 150.016 19.3 149.761 19.925C149.506 20.55 149.376 21.275 149.371 22.1C149.366 22.925 149.491 23.6475 149.746 24.2675C150.001 24.8825 150.383 25.3625 150.893 25.7075C151.408 26.0525 152.048 26.2275 152.813 26.2325ZM159.409 27.5V16.7H165.807V18.2675H160.977V21.3125H164.907V22.8875H160.977V27.5H159.409ZM167.158 27.5V16.7H173.556V18.2675H168.726V21.3125H172.656V22.8875H168.726V27.5H167.158ZM174.907 27.5V16.7H181.807V18.1775H176.475V21.2075H180.907V22.685H176.475V26.0225H181.807V27.5H174.907ZM183.609 27.5V16.7H187.974C188.079 16.7 188.209 16.705 188.364 16.715C188.519 16.72 188.666 16.735 188.806 16.76C189.406 16.855 189.906 17.06 190.306 17.375C190.711 17.69 191.014 18.0875 191.214 18.5675C191.414 19.0475 191.514 19.5775 191.514 20.1575C191.514 21.0175 191.294 21.76 190.854 22.385C190.414 23.005 189.754 23.3925 188.874 23.5475L188.236 23.6225H185.176V27.5H183.609ZM189.924 27.5L187.794 23.105L189.376 22.7L191.716 27.5H189.924ZM185.176 22.1375H187.914C188.014 22.1375 188.124 22.1325 188.244 22.1225C188.369 22.1125 188.486 22.095 188.596 22.07C188.916 21.995 189.174 21.8575 189.369 21.6575C189.564 21.4525 189.704 21.2175 189.789 20.9525C189.874 20.6875 189.916 20.4225 189.916 20.1575C189.916 19.8925 189.874 19.63 189.789 19.37C189.704 19.105 189.564 18.8725 189.369 18.6725C189.174 18.4675 188.916 18.3275 188.596 18.2525C188.486 18.2225 188.369 18.2025 188.244 18.1925C188.124 18.1825 188.014 18.1775 187.914 18.1775H185.176V22.1375Z" fill="white"/>
</svg>
