<svg width="259" height="40" viewBox="0 0 259 40" fill="none" xmlns="http://www.w3.org/2000/svg">
<rect width="258.783" height="40" rx="2" fill="#FFB444" fill-opacity="0.08"/>
<path d="M20 10C20.0167 10 20.0333 10 20.0498 10C20.749 10.3184 21.2678 10.8172 21.6063 11.4962C21.6254 11.5343 21.6349 11.5755 21.6349 11.6196C21.6367 14.9738 21.6373 18.3282 21.6366 21.6826C21.6366 21.8918 21.6377 22.0734 21.6399 22.2272C21.6455 22.6015 21.6536 22.8695 21.6641 23.0313C21.7394 24.1974 22.1349 25.2409 22.8504 26.1619C23.2703 26.7021 23.7579 27.1453 24.3131 27.4916C25.3821 28.1579 26.5509 28.448 27.8195 28.3621C28.0039 28.3496 28.1858 28.3276 28.3652 28.2962C29.4115 28.1131 30.3362 27.6807 31.1393 26.9989C31.277 26.8819 31.4097 26.7567 31.5373 26.6232C32.524 25.5906 33.0554 24.3569 33.1315 22.9221C33.1413 22.7406 33.1397 22.5591 33.1269 22.3777C33.0249 20.9255 32.46 19.69 31.4323 18.6711C31.3012 18.5411 31.1652 18.4194 31.0244 18.3063C30.1954 17.6391 29.2497 17.2292 28.1875 17.0768C28.0028 17.0503 27.8204 17.0336 27.6401 17.0267C27.3486 17.0158 27.0573 17.0263 26.7663 17.0583C26.6863 17.0672 26.599 17.074 26.5042 17.0787C26.5016 17.0789 26.4991 17.0785 26.4967 17.0776C26.4943 17.0768 26.4921 17.0754 26.4902 17.0736C26.4884 17.0719 26.4869 17.0698 26.4859 17.0674C26.4849 17.065 26.4843 17.0625 26.4844 17.0599V15.4632C26.4843 15.4567 26.4868 15.4503 26.4913 15.4454C26.4957 15.4405 26.5019 15.4375 26.5086 15.4368C26.8725 15.401 27.2404 15.3881 27.6121 15.3981C28.5293 15.4226 29.4074 15.6083 30.2465 15.955C30.4128 16.0237 30.579 16.1002 30.7449 16.1845C31.9966 16.821 32.9888 17.7335 33.7215 18.9221C33.8182 19.079 33.9075 19.2376 33.9894 19.3978C34.4526 20.3037 34.7129 21.2629 34.7703 22.2752C34.8446 23.584 34.583 24.8262 33.9856 26.0019C33.6718 26.6195 33.2853 27.1694 32.8259 27.6515C32.7016 27.7821 32.6237 27.8661 32.5922 27.9035C32.5852 27.9121 32.5726 27.9212 32.5545 27.9308C32.5396 27.9388 32.5273 27.9477 32.5176 27.9575C32.3627 28.1143 32.1982 28.2607 32.0242 28.3967C30.7952 29.3582 29.395 29.8926 27.8236 30C27.5599 30 27.2963 30 27.0328 30C25.5468 29.9168 24.2114 29.4486 23.0267 28.5954C22.8776 28.488 22.7337 28.3756 22.5951 28.258C21.9181 27.6844 21.3654 27.0179 20.9368 26.2586C20.3293 25.1814 20.0215 24.0148 20.0135 22.7589C20.0126 22.6219 20.0081 22.4851 20 22.3485C20 18.2322 20 14.1161 20 10Z" fill="#EA981C"/>
<path d="M29.1438 20.9417C28.7769 20.5847 28.341 20.3601 27.8362 20.2678C27.6543 20.2346 27.472 20.2226 27.2892 20.2319C27.0275 20.245 26.7699 20.2951 26.5165 20.3823C26.5129 20.3835 26.509 20.3839 26.5052 20.3834C26.5013 20.3828 26.4977 20.3814 26.4946 20.3792C26.4914 20.377 26.4888 20.3741 26.4871 20.3707C26.4853 20.3673 26.4844 20.3635 26.4844 20.3597V18.7259C26.4844 18.7138 26.4888 18.7021 26.4968 18.693C26.5049 18.6839 26.516 18.6779 26.5281 18.6763C26.6284 18.6625 26.7381 18.6479 26.8573 18.6324C27.2512 18.581 27.6442 18.5866 28.0362 18.649C28.9789 18.7991 29.7653 19.2045 30.3953 19.8654C31.0175 20.5179 31.3871 21.2848 31.5041 22.1662C31.588 22.7991 31.5239 23.4258 31.3115 24.0463C31.1113 24.6312 30.7843 25.1485 30.3307 25.5981C30.2016 25.7262 30.0634 25.8455 29.9162 25.9561C29.1884 26.5027 28.3631 26.7844 27.4404 26.8011C27.2589 26.8044 27.0759 26.7941 26.8914 26.7703C25.6792 26.6132 24.7166 26.0452 24.0037 25.0665C23.5973 24.5084 23.3544 23.8774 23.2748 23.1733C23.2599 23.0412 23.2525 22.8599 23.2525 22.6294C23.2525 19.2756 23.2525 15.9202 23.2525 12.5635C23.2525 12.56 23.2534 12.5567 23.2551 12.5536C23.2567 12.5506 23.2591 12.5481 23.2621 12.5462C23.265 12.5443 23.2683 12.5432 23.2718 12.5429C23.2753 12.5427 23.2787 12.5433 23.2819 12.5447C23.9921 12.8638 24.521 13.3802 24.8687 14.0937C24.8823 14.1213 24.889 14.1506 24.889 14.1815C24.889 17.0205 24.889 19.8592 24.889 22.6975C24.889 22.7595 24.8966 22.849 24.9116 22.9662C24.9244 23.0658 24.9398 23.1541 24.9578 23.2313C25.1005 23.845 25.4231 24.3321 25.9257 24.6926C26.0753 24.8 26.2342 24.8901 26.4024 24.9629C26.9254 25.1895 27.4684 25.2313 28.0315 25.0886C28.3702 25.0028 28.6785 24.8483 28.9565 24.6251C29.0977 24.5117 29.2264 24.3829 29.3427 24.2387C29.6982 23.7973 29.8806 23.2904 29.8898 22.718C29.8925 22.5334 29.8743 22.353 29.835 22.1768C29.7279 21.6976 29.4975 21.2859 29.1438 20.9417Z" fill="#EA981C"/>
<path d="M47.8322 25.5V14.7H54.7322V16.1775H49.3997V19.2075H53.8322V20.685H49.3997V24.0225H54.7322V25.5H47.8322ZM56.5334 25.5V14.7H58.1234L63.4409 22.725V14.7H65.0309V25.5H63.4409L58.1234 17.4675V25.5H56.5334ZM69.6592 25.5L66.1492 14.7H67.7767L70.7692 23.9175L73.7992 14.7H75.4267L71.9167 25.5H69.6592ZM76.7078 25.5V14.7H78.2753V25.5H76.7078ZM80.5275 25.5V14.7H84.8925C84.9975 14.7 85.1275 14.705 85.2825 14.715C85.4375 14.72 85.585 14.735 85.725 14.76C86.325 14.855 86.825 15.06 87.225 15.375C87.63 15.69 87.9325 16.0875 88.1325 16.5675C88.3325 17.0475 88.4325 17.5775 88.4325 18.1575C88.4325 19.0175 88.2125 19.76 87.7725 20.385C87.3325 21.005 86.6725 21.3925 85.7925 21.5475L85.155 21.6225H82.095V25.5H80.5275ZM86.8425 25.5L84.7125 21.105L86.295 20.7L88.635 25.5H86.8425ZM82.095 20.1375H84.8325C84.9325 20.1375 85.0425 20.1325 85.1625 20.1225C85.2875 20.1125 85.405 20.095 85.515 20.07C85.835 19.995 86.0925 19.8575 86.2875 19.6575C86.4825 19.4525 86.6225 19.2175 86.7075 18.9525C86.7925 18.6875 86.835 18.4225 86.835 18.1575C86.835 17.8925 86.7925 17.63 86.7075 17.37C86.6225 17.105 86.4825 16.8725 86.2875 16.6725C86.0925 16.4675 85.835 16.3275 85.515 16.2525C85.405 16.2225 85.2875 16.2025 85.1625 16.1925C85.0425 16.1825 84.9325 16.1775 84.8325 16.1775H82.095V20.1375ZM94.7909 25.725C93.7109 25.725 92.7909 25.49 92.0309 25.02C91.2709 24.545 90.6884 23.885 90.2834 23.04C89.8834 22.195 89.6834 21.215 89.6834 20.1C89.6834 18.985 89.8834 18.005 90.2834 17.16C90.6884 16.315 91.2709 15.6575 92.0309 15.1875C92.7909 14.7125 93.7109 14.475 94.7909 14.475C95.8659 14.475 96.7834 14.7125 97.5434 15.1875C98.3084 15.6575 98.8909 16.315 99.2909 17.16C99.6909 18.005 99.8909 18.985 99.8909 20.1C99.8909 21.215 99.6909 22.195 99.2909 23.04C98.8909 23.885 98.3084 24.545 97.5434 25.02C96.7834 25.49 95.8659 25.725 94.7909 25.725ZM94.7909 24.2325C95.5559 24.2425 96.1909 24.075 96.6959 23.73C97.2059 23.38 97.5884 22.895 97.8434 22.275C98.0984 21.65 98.2259 20.925 98.2259 20.1C98.2259 19.275 98.0984 18.555 97.8434 17.94C97.5884 17.32 97.2059 16.8375 96.6959 16.4925C96.1909 16.1475 95.5559 15.9725 94.7909 15.9675C94.0259 15.9575 93.3884 16.125 92.8784 16.47C92.3734 16.815 91.9934 17.3 91.7384 17.925C91.4834 18.55 91.3534 19.275 91.3484 20.1C91.3434 20.925 91.4684 21.6475 91.7234 22.2675C91.9784 22.8825 92.3609 23.3625 92.8709 23.7075C93.3859 24.0525 94.0259 24.2275 94.7909 24.2325ZM101.387 25.5V14.7H102.977L108.294 22.725V14.7H109.884V25.5H108.294L102.977 17.4675V25.5H101.387ZM111.978 25.5V14.7H113.395L117.31 22.8225L121.203 14.7H122.635V25.4925H121.15V18.105L117.663 25.5H116.95L113.455 18.105V25.5H111.978ZM124.737 25.5V14.7H131.637V16.1775H126.304V19.2075H130.737V20.685H126.304V24.0225H131.637V25.5H124.737ZM133.438 25.5V14.7H135.028L140.345 22.725V14.7H141.935V25.5H140.345L135.028 17.4675V25.5H133.438ZM146.721 25.5V16.1775H143.129V14.7H151.881V16.1775H148.289V25.5H146.721ZM152.038 25.5L155.548 14.7H157.806L161.316 25.5H159.688L156.456 15.645H156.861L153.666 25.5H152.038ZM153.861 23.0625V21.5925H159.501V23.0625H153.861ZM162.811 25.5V14.7H164.379V24.0225H169.269V25.5H162.811ZM172.798 25.5V14.7H179.196V16.2675H174.366V19.3125H178.296V20.8875H174.366V25.5H172.798ZM180.547 25.5V14.7H184.912C185.017 14.7 185.147 14.705 185.302 14.715C185.457 14.72 185.605 14.735 185.745 14.76C186.345 14.855 186.845 15.06 187.245 15.375C187.65 15.69 187.952 16.0875 188.152 16.5675C188.352 17.0475 188.452 17.5775 188.452 18.1575C188.452 19.0175 188.232 19.76 187.792 20.385C187.352 21.005 186.692 21.3925 185.812 21.5475L185.175 21.6225H182.115V25.5H180.547ZM186.862 25.5L184.732 21.105L186.315 20.7L188.655 25.5H186.862ZM182.115 20.1375H184.852C184.952 20.1375 185.062 20.1325 185.182 20.1225C185.307 20.1125 185.425 20.095 185.535 20.07C185.855 19.995 186.112 19.8575 186.307 19.6575C186.502 19.4525 186.642 19.2175 186.727 18.9525C186.812 18.6875 186.855 18.4225 186.855 18.1575C186.855 17.8925 186.812 17.63 186.727 17.37C186.642 17.105 186.502 16.8725 186.307 16.6725C186.112 16.4675 185.855 16.3275 185.535 16.2525C185.425 16.2225 185.307 16.2025 185.182 16.1925C185.062 16.1825 184.952 16.1775 184.852 16.1775H182.115V20.1375ZM190.453 25.5V14.7H192.02V25.5H190.453ZM194.273 25.5V14.7H201.173V16.1775H195.84V19.2075H200.273V20.685H195.84V24.0225H201.173V25.5H194.273ZM202.974 25.5V14.7H204.564L209.881 22.725V14.7H211.471V25.5H209.881L204.564 17.4675V25.5H202.974ZM213.565 25.5V14.7H216.947C217.047 14.7 217.232 14.7025 217.502 14.7075C217.777 14.7125 218.04 14.7325 218.29 14.7675C219.135 14.8725 219.845 15.175 220.42 15.675C221 16.175 221.437 16.81 221.732 17.58C222.027 18.345 222.175 19.185 222.175 20.1C222.175 21.02 222.027 21.865 221.732 22.635C221.437 23.4 221 24.0325 220.42 24.5325C219.845 25.0275 219.135 25.3275 218.29 25.4325C218.04 25.4675 217.777 25.4875 217.502 25.4925C217.232 25.4975 217.047 25.5 216.947 25.5H213.565ZM215.17 24.0075H216.947C217.117 24.0075 217.32 24.0025 217.555 23.9925C217.79 23.9825 217.997 23.9625 218.177 23.9325C218.727 23.8275 219.172 23.59 219.512 23.22C219.857 22.845 220.11 22.385 220.27 21.84C220.43 21.295 220.51 20.715 220.51 20.1C220.51 19.465 220.427 18.8775 220.262 18.3375C220.097 17.7925 219.842 17.3375 219.497 16.9725C219.157 16.6025 218.717 16.3675 218.177 16.2675C217.997 16.2325 217.787 16.2125 217.547 16.2075C217.312 16.1975 217.112 16.1925 216.947 16.1925H215.17V24.0075ZM224.071 25.5V14.7H225.639V24.0225H230.529V25.5H224.071ZM232.91 25.5V21.0375L229.258 14.7H231.088L233.705 19.2375L236.323 14.7H238.153L234.5 21.0375V25.5H232.91Z" fill="#EA981C"/>
</svg>
