<svg width="296" height="45" viewBox="0 0 296 45" fill="none" xmlns="http://www.w3.org/2000/svg">
<rect y="0.5" width="295.783" height="44" rx="2" fill="white" fill-opacity="0.05"/>
<path d="M20 12.5C20.0167 12.5 20.0333 12.5 20.0498 12.5C20.749 12.8184 21.2678 13.3172 21.6063 13.9962C21.6254 14.0343 21.6349 14.0755 21.6349 14.1196C21.6367 17.4738 21.6373 20.8282 21.6366 24.1826C21.6366 24.3918 21.6377 24.5734 21.6399 24.7272C21.6455 25.1015 21.6536 25.3695 21.6641 25.5313C21.7394 26.6974 22.1349 27.7409 22.8504 28.6619C23.2703 29.2021 23.7579 29.6453 24.3131 29.9916C25.3821 30.6579 26.5509 30.948 27.8195 30.8621C28.0039 30.8496 28.1858 30.8276 28.3652 30.7962C29.4115 30.6131 30.3362 30.1807 31.1393 29.4989C31.277 29.3819 31.4097 29.2567 31.5373 29.1232C32.524 28.0906 33.0554 26.8569 33.1315 25.4221C33.1413 25.2406 33.1397 25.0591 33.1269 24.8777C33.0249 23.4255 32.46 22.19 31.4323 21.1711C31.3012 21.0411 31.1652 20.9194 31.0244 20.8063C30.1954 20.1391 29.2497 19.7292 28.1875 19.5768C28.0028 19.5503 27.8204 19.5336 27.6401 19.5267C27.3486 19.5158 27.0573 19.5263 26.7663 19.5583C26.6863 19.5672 26.599 19.574 26.5042 19.5787C26.5016 19.5789 26.4991 19.5785 26.4967 19.5776C26.4943 19.5768 26.4921 19.5754 26.4902 19.5736C26.4884 19.5719 26.4869 19.5698 26.4859 19.5674C26.4849 19.565 26.4843 19.5625 26.4844 19.5599V17.9632C26.4843 17.9567 26.4868 17.9503 26.4913 17.9454C26.4957 17.9405 26.5019 17.9375 26.5086 17.9368C26.8725 17.901 27.2404 17.8881 27.6121 17.8981C28.5293 17.9226 29.4074 18.1083 30.2465 18.455C30.4128 18.5237 30.579 18.6002 30.7449 18.6845C31.9966 19.321 32.9888 20.2335 33.7215 21.4221C33.8182 21.579 33.9075 21.7376 33.9894 21.8978C34.4526 22.8037 34.7129 23.7629 34.7703 24.7752C34.8446 26.084 34.583 27.3262 33.9856 28.5019C33.6718 29.1195 33.2853 29.6694 32.8259 30.1515C32.7016 30.2821 32.6237 30.3661 32.5922 30.4035C32.5852 30.4121 32.5726 30.4212 32.5545 30.4308C32.5396 30.4388 32.5273 30.4477 32.5176 30.4575C32.3627 30.6143 32.1982 30.7607 32.0242 30.8967C30.7952 31.8582 29.395 32.3926 27.8236 32.5C27.5599 32.5 27.2963 32.5 27.0328 32.5C25.5468 32.4168 24.2114 31.9486 23.0267 31.0954C22.8776 30.988 22.7337 30.8756 22.5951 30.758C21.9181 30.1844 21.3654 29.5179 20.9368 28.7586C20.3293 27.6814 20.0215 26.5148 20.0135 25.2589C20.0126 25.1219 20.0081 24.9851 20 24.8485C20 20.7322 20 16.6161 20 12.5Z" fill="white"/>
<path d="M29.1438 23.4417C28.7769 23.0847 28.341 22.8601 27.8362 22.7678C27.6543 22.7346 27.472 22.7226 27.2892 22.7319C27.0275 22.745 26.7699 22.7951 26.5165 22.8823C26.5129 22.8835 26.509 22.8839 26.5052 22.8834C26.5013 22.8828 26.4977 22.8814 26.4946 22.8792C26.4914 22.877 26.4888 22.8741 26.4871 22.8707C26.4853 22.8673 26.4844 22.8635 26.4844 22.8597V21.2259C26.4844 21.2138 26.4888 21.2021 26.4968 21.193C26.5049 21.1839 26.516 21.1779 26.5281 21.1763C26.6284 21.1625 26.7381 21.1479 26.8573 21.1324C27.2512 21.081 27.6442 21.0866 28.0362 21.149C28.9789 21.2991 29.7653 21.7045 30.3953 22.3654C31.0175 23.0179 31.3871 23.7848 31.5041 24.6662C31.588 25.2991 31.5239 25.9258 31.3115 26.5463C31.1113 27.1312 30.7843 27.6485 30.3307 28.0981C30.2016 28.2262 30.0634 28.3455 29.9162 28.4561C29.1884 29.0027 28.3631 29.2844 27.4404 29.3011C27.2589 29.3044 27.0759 29.2941 26.8914 29.2703C25.6792 29.1132 24.7166 28.5452 24.0037 27.5665C23.5973 27.0084 23.3544 26.3774 23.2748 25.6733C23.2599 25.5412 23.2525 25.3599 23.2525 25.1294C23.2525 21.7756 23.2525 18.4202 23.2525 15.0635C23.2525 15.06 23.2534 15.0567 23.2551 15.0536C23.2567 15.0506 23.2591 15.0481 23.2621 15.0462C23.265 15.0443 23.2683 15.0432 23.2718 15.0429C23.2753 15.0427 23.2787 15.0433 23.2819 15.0447C23.9921 15.3638 24.521 15.8802 24.8687 16.5937C24.8823 16.6213 24.889 16.6506 24.889 16.6815C24.889 19.5205 24.889 22.3592 24.889 25.1975C24.889 25.2595 24.8966 25.349 24.9116 25.4662C24.9244 25.5658 24.9398 25.6541 24.9578 25.7313C25.1005 26.345 25.4231 26.8321 25.9257 27.1926C26.0753 27.3 26.2342 27.3901 26.4024 27.4629C26.9254 27.6895 27.4684 27.7313 28.0315 27.5886C28.3702 27.5028 28.6785 27.3483 28.9565 27.1251C29.0977 27.0117 29.2264 26.8829 29.3427 26.7387C29.6982 26.2973 29.8806 25.7904 29.8898 25.218C29.8925 25.0334 29.8743 24.853 29.835 24.6768C29.7279 24.1976 29.4975 23.7859 29.1438 23.4417Z" fill="white"/>
<path d="M47.8322 28V17.2H54.2297V18.7675H49.3997V21.8125H53.3297V23.3875H49.3997V28H47.8322ZM55.5813 28V17.2H59.9463C60.0513 17.2 60.1813 17.205 60.3363 17.215C60.4913 17.22 60.6388 17.235 60.7788 17.26C61.3788 17.355 61.8788 17.56 62.2787 17.875C62.6838 18.19 62.9863 18.5875 63.1863 19.0675C63.3863 19.5475 63.4863 20.0775 63.4863 20.6575C63.4863 21.5175 63.2663 22.26 62.8263 22.885C62.3863 23.505 61.7263 23.8925 60.8463 24.0475L60.2088 24.1225H57.1488V28H55.5813ZM61.8963 28L59.7663 23.605L61.3488 23.2L63.6888 28H61.8963ZM57.1488 22.6375H59.8863C59.9863 22.6375 60.0963 22.6325 60.2163 22.6225C60.3413 22.6125 60.4588 22.595 60.5688 22.57C60.8888 22.495 61.1463 22.3575 61.3413 22.1575C61.5363 21.9525 61.6763 21.7175 61.7613 21.4525C61.8463 21.1875 61.8888 20.9225 61.8888 20.6575C61.8888 20.3925 61.8463 20.13 61.7613 19.87C61.6763 19.605 61.5363 19.3725 61.3413 19.1725C61.1463 18.9675 60.8888 18.8275 60.5688 18.7525C60.4588 18.7225 60.3413 18.7025 60.2163 18.6925C60.0963 18.6825 59.9863 18.6775 59.8863 18.6775H57.1488V22.6375ZM65.3371 28V17.2H72.2371V18.6775H66.9046V21.7075H71.3371V23.185H66.9046V26.5225H72.2371V28H65.3371ZM82.0517 28.2175L79.0367 25.2175L80.0417 24.2125L83.0417 27.2125L82.0517 28.2175ZM78.0917 28.225C77.0117 28.225 76.0917 27.99 75.3317 27.52C74.5717 27.045 73.9892 26.385 73.5842 25.54C73.1842 24.695 72.9842 23.715 72.9842 22.6C72.9842 21.485 73.1842 20.505 73.5842 19.66C73.9892 18.815 74.5717 18.1575 75.3317 17.6875C76.0917 17.2125 77.0117 16.975 78.0917 16.975C79.1667 16.975 80.0842 17.2125 80.8442 17.6875C81.6092 18.1575 82.1917 18.815 82.5917 19.66C82.9917 20.505 83.1917 21.485 83.1917 22.6C83.1917 23.715 82.9917 24.695 82.5917 25.54C82.1917 26.385 81.6092 27.045 80.8442 27.52C80.0842 27.99 79.1667 28.225 78.0917 28.225ZM78.0917 26.7325C78.8567 26.7425 79.4917 26.575 79.9967 26.23C80.5067 25.88 80.8892 25.395 81.1442 24.775C81.3992 24.15 81.5267 23.425 81.5267 22.6C81.5267 21.775 81.3992 21.055 81.1442 20.44C80.8892 19.82 80.5067 19.3375 79.9967 18.9925C79.4917 18.6475 78.8567 18.4725 78.0917 18.4675C77.3267 18.4575 76.6892 18.625 76.1792 18.97C75.6742 19.315 75.2942 19.8 75.0392 20.425C74.7842 21.05 74.6542 21.775 74.6492 22.6C74.6442 23.425 74.7692 24.1475 75.0242 24.7675C75.2792 25.3825 75.6617 25.8625 76.1717 26.2075C76.6867 26.5525 77.3267 26.7275 78.0917 26.7325ZM88.9927 28.225C88.1477 28.225 87.4002 28.0525 86.7502 27.7075C86.1052 27.3575 85.6002 26.87 85.2352 26.245C84.8702 25.615 84.6877 24.875 84.6877 24.025V17.2075L86.2777 17.2V23.9425C86.2777 24.4025 86.3552 24.8075 86.5102 25.1575C86.6652 25.5075 86.8727 25.8 87.1327 26.035C87.3927 26.27 87.6827 26.4475 88.0027 26.5675C88.3277 26.6875 88.6577 26.7475 88.9927 26.7475C89.3327 26.7475 89.6627 26.6875 89.9827 26.5675C90.3077 26.4425 90.6002 26.2625 90.8602 26.0275C91.1202 25.7925 91.3252 25.5 91.4752 25.15C91.6302 24.8 91.7077 24.3975 91.7077 23.9425V17.2H93.2977V24.025C93.2977 24.87 93.1152 25.6075 92.7502 26.2375C92.3852 26.8675 91.8777 27.3575 91.2277 27.7075C90.5827 28.0525 89.8377 28.225 88.9927 28.225ZM95.3957 28V17.2H102.296V18.6775H96.9632V21.7075H101.396V23.185H96.9632V26.5225H102.296V28H95.3957ZM104.097 28V17.2H105.687L111.004 25.225V17.2H112.594V28H111.004L105.687 19.9675V28H104.097ZM117.38 28V18.6775H113.788V17.2H122.54V18.6775H118.948V28H117.38ZM123.89 28V17.2H125.458V26.5225H130.348V28H123.89ZM132.73 28V23.5375L129.077 17.2H130.907L133.525 21.7375L136.142 17.2H137.972L134.32 23.5375V28H132.73ZM140.671 28L144.181 17.2H146.439L149.949 28H148.321L145.089 18.145H145.494L142.299 28H140.671ZM142.494 25.5625V24.0925H148.134V25.5625H142.494ZM154.916 28.225C154.141 28.225 153.441 28.0925 152.816 27.8275C152.196 27.5575 151.684 27.175 151.279 26.68C150.879 26.18 150.619 25.5875 150.499 24.9025L152.134 24.655C152.299 25.315 152.644 25.83 153.169 26.2C153.694 26.565 154.306 26.7475 155.006 26.7475C155.441 26.7475 155.841 26.68 156.206 26.545C156.571 26.405 156.864 26.2075 157.084 25.9525C157.309 25.6925 157.421 25.3825 157.421 25.0225C157.421 24.8275 157.386 24.655 157.316 24.505C157.251 24.355 157.159 24.225 157.039 24.115C156.924 24 156.781 23.9025 156.611 23.8225C156.446 23.7375 156.264 23.665 156.064 23.605L153.296 22.7875C153.026 22.7075 152.751 22.605 152.471 22.48C152.191 22.35 151.934 22.1825 151.699 21.9775C151.469 21.7675 151.281 21.51 151.136 21.205C150.991 20.895 150.919 20.52 150.919 20.08C150.919 19.415 151.089 18.8525 151.429 18.3925C151.774 17.9275 152.239 17.5775 152.824 17.3425C153.409 17.1025 154.064 16.9825 154.789 16.9825C155.519 16.9925 156.171 17.1225 156.746 17.3725C157.326 17.6225 157.806 17.9825 158.186 18.4525C158.571 18.9175 158.836 19.4825 158.981 20.1475L157.301 20.4325C157.226 20.0275 157.066 19.68 156.821 19.39C156.576 19.095 156.276 18.87 155.921 18.715C155.566 18.555 155.181 18.4725 154.766 18.4675C154.366 18.4575 153.999 18.5175 153.664 18.6475C153.334 18.7775 153.069 18.96 152.869 19.195C152.674 19.43 152.576 19.7 152.576 20.005C152.576 20.305 152.664 20.5475 152.839 20.7325C153.014 20.9175 153.229 21.065 153.484 21.175C153.744 21.28 154.001 21.3675 154.256 21.4375L156.251 22C156.501 22.07 156.784 22.165 157.099 22.285C157.419 22.4 157.726 22.5625 158.021 22.7725C158.321 22.9825 158.569 23.2625 158.764 23.6125C158.959 23.9575 159.056 24.3925 159.056 24.9175C159.056 25.4625 158.946 25.9425 158.726 26.3575C158.506 26.7675 158.204 27.1125 157.819 27.3925C157.439 27.6675 156.999 27.875 156.499 28.015C155.999 28.155 155.471 28.225 154.916 28.225ZM160.654 28V17.2H162.222V22.24L166.744 17.2H168.694L163.917 22.4725L169.047 28H167.037L162.222 22.84V28H160.654ZM170.103 28V17.2H177.003V18.6775H171.67V21.7075H176.103V23.185H171.67V26.5225H177.003V28H170.103ZM178.804 28V17.2H182.186C182.286 17.2 182.471 17.2025 182.741 17.2075C183.016 17.2125 183.279 17.2325 183.529 17.2675C184.374 17.3725 185.084 17.675 185.659 18.175C186.239 18.675 186.676 19.31 186.971 20.08C187.266 20.845 187.414 21.685 187.414 22.6C187.414 23.52 187.266 24.365 186.971 25.135C186.676 25.9 186.239 26.5325 185.659 27.0325C185.084 27.5275 184.374 27.8275 183.529 27.9325C183.279 27.9675 183.016 27.9875 182.741 27.9925C182.471 27.9975 182.286 28 182.186 28H178.804ZM180.409 26.5075H182.186C182.356 26.5075 182.559 26.5025 182.794 26.4925C183.029 26.4825 183.236 26.4625 183.416 26.4325C183.966 26.3275 184.411 26.09 184.751 25.72C185.096 25.345 185.349 24.885 185.509 24.34C185.669 23.795 185.749 23.215 185.749 22.6C185.749 21.965 185.666 21.3775 185.501 20.8375C185.336 20.2925 185.081 19.8375 184.736 19.4725C184.396 19.1025 183.956 18.8675 183.416 18.7675C183.236 18.7325 183.026 18.7125 182.786 18.7075C182.551 18.6975 182.351 18.6925 182.186 18.6925H180.409V26.5075ZM200.631 28.2175L197.616 25.2175L198.621 24.2125L201.621 27.2125L200.631 28.2175ZM196.671 28.225C195.591 28.225 194.671 27.99 193.911 27.52C193.151 27.045 192.568 26.385 192.163 25.54C191.763 24.695 191.563 23.715 191.563 22.6C191.563 21.485 191.763 20.505 192.163 19.66C192.568 18.815 193.151 18.1575 193.911 17.6875C194.671 17.2125 195.591 16.975 196.671 16.975C197.746 16.975 198.663 17.2125 199.423 17.6875C200.188 18.1575 200.771 18.815 201.171 19.66C201.571 20.505 201.771 21.485 201.771 22.6C201.771 23.715 201.571 24.695 201.171 25.54C200.771 26.385 200.188 27.045 199.423 27.52C198.663 27.99 197.746 28.225 196.671 28.225ZM196.671 26.7325C197.436 26.7425 198.071 26.575 198.576 26.23C199.086 25.88 199.468 25.395 199.723 24.775C199.978 24.15 200.106 23.425 200.106 22.6C200.106 21.775 199.978 21.055 199.723 20.44C199.468 19.82 199.086 19.3375 198.576 18.9925C198.071 18.6475 197.436 18.4725 196.671 18.4675C195.906 18.4575 195.268 18.625 194.758 18.97C194.253 19.315 193.873 19.8 193.618 20.425C193.363 21.05 193.233 21.775 193.228 22.6C193.223 23.425 193.348 24.1475 193.603 24.7675C193.858 25.3825 194.241 25.8625 194.751 26.2075C195.266 26.5525 195.906 26.7275 196.671 26.7325ZM207.572 28.225C206.727 28.225 205.979 28.0525 205.329 27.7075C204.684 27.3575 204.179 26.87 203.814 26.245C203.449 25.615 203.267 24.875 203.267 24.025V17.2075L204.857 17.2V23.9425C204.857 24.4025 204.934 24.8075 205.089 25.1575C205.244 25.5075 205.452 25.8 205.712 26.035C205.972 26.27 206.262 26.4475 206.582 26.5675C206.907 26.6875 207.237 26.7475 207.572 26.7475C207.912 26.7475 208.242 26.6875 208.562 26.5675C208.887 26.4425 209.179 26.2625 209.439 26.0275C209.699 25.7925 209.904 25.5 210.054 25.15C210.209 24.8 210.287 24.3975 210.287 23.9425V17.2H211.877V24.025C211.877 24.87 211.694 25.6075 211.329 26.2375C210.964 26.8675 210.457 27.3575 209.807 27.7075C209.162 28.0525 208.417 28.225 207.572 28.225ZM213.975 28V17.2H220.875V18.6775H215.542V21.7075H219.975V23.185H215.542V26.5225H220.875V28H213.975ZM226.386 28.225C225.611 28.225 224.911 28.0925 224.286 27.8275C223.666 27.5575 223.153 27.175 222.748 26.68C222.348 26.18 222.088 25.5875 221.968 24.9025L223.603 24.655C223.768 25.315 224.113 25.83 224.638 26.2C225.163 26.565 225.776 26.7475 226.476 26.7475C226.911 26.7475 227.311 26.68 227.676 26.545C228.041 26.405 228.333 26.2075 228.553 25.9525C228.778 25.6925 228.891 25.3825 228.891 25.0225C228.891 24.8275 228.856 24.655 228.786 24.505C228.721 24.355 228.628 24.225 228.508 24.115C228.393 24 228.251 23.9025 228.081 23.8225C227.916 23.7375 227.733 23.665 227.533 23.605L224.766 22.7875C224.496 22.7075 224.221 22.605 223.941 22.48C223.661 22.35 223.403 22.1825 223.168 21.9775C222.938 21.7675 222.751 21.51 222.606 21.205C222.461 20.895 222.388 20.52 222.388 20.08C222.388 19.415 222.558 18.8525 222.898 18.3925C223.243 17.9275 223.708 17.5775 224.293 17.3425C224.878 17.1025 225.533 16.9825 226.258 16.9825C226.988 16.9925 227.641 17.1225 228.216 17.3725C228.796 17.6225 229.276 17.9825 229.656 18.4525C230.041 18.9175 230.306 19.4825 230.451 20.1475L228.771 20.4325C228.696 20.0275 228.536 19.68 228.291 19.39C228.046 19.095 227.746 18.87 227.391 18.715C227.036 18.555 226.651 18.4725 226.236 18.4675C225.836 18.4575 225.468 18.5175 225.133 18.6475C224.803 18.7775 224.538 18.96 224.338 19.195C224.143 19.43 224.046 19.7 224.046 20.005C224.046 20.305 224.133 20.5475 224.308 20.7325C224.483 20.9175 224.698 21.065 224.953 21.175C225.213 21.28 225.471 21.3675 225.726 21.4375L227.721 22C227.971 22.07 228.253 22.165 228.568 22.285C228.888 22.4 229.196 22.5625 229.491 22.7725C229.791 22.9825 230.038 23.2625 230.233 23.6125C230.428 23.9575 230.526 24.3925 230.526 24.9175C230.526 25.4625 230.416 25.9425 230.196 26.3575C229.976 26.7675 229.673 27.1125 229.288 27.3925C228.908 27.6675 228.468 27.875 227.968 28.015C227.468 28.155 226.941 28.225 226.386 28.225ZM234.817 28V18.6775H231.224V17.2H239.977V18.6775H236.384V28H234.817ZM241.327 28V17.2H242.894V28H241.327ZM249.654 28.225C248.574 28.225 247.654 27.99 246.894 27.52C246.134 27.045 245.552 26.385 245.147 25.54C244.747 24.695 244.547 23.715 244.547 22.6C244.547 21.485 244.747 20.505 245.147 19.66C245.552 18.815 246.134 18.1575 246.894 17.6875C247.654 17.2125 248.574 16.975 249.654 16.975C250.729 16.975 251.647 17.2125 252.407 17.6875C253.172 18.1575 253.754 18.815 254.154 19.66C254.554 20.505 254.754 21.485 254.754 22.6C254.754 23.715 254.554 24.695 254.154 25.54C253.754 26.385 253.172 27.045 252.407 27.52C251.647 27.99 250.729 28.225 249.654 28.225ZM249.654 26.7325C250.419 26.7425 251.054 26.575 251.559 26.23C252.069 25.88 252.452 25.395 252.707 24.775C252.962 24.15 253.089 23.425 253.089 22.6C253.089 21.775 252.962 21.055 252.707 20.44C252.452 19.82 252.069 19.3375 251.559 18.9925C251.054 18.6475 250.419 18.4725 249.654 18.4675C248.889 18.4575 248.252 18.625 247.742 18.97C247.237 19.315 246.857 19.8 246.602 20.425C246.347 21.05 246.217 21.775 246.212 22.6C246.207 23.425 246.332 24.1475 246.587 24.7675C246.842 25.3825 247.224 25.8625 247.734 26.2075C248.249 26.5525 248.889 26.7275 249.654 26.7325ZM256.25 28V17.2H257.84L263.158 25.225V17.2H264.748V28H263.158L257.84 19.9675V28H256.25ZM270.756 28.225C269.981 28.225 269.281 28.0925 268.656 27.8275C268.036 27.5575 267.524 27.175 267.119 26.68C266.719 26.18 266.459 25.5875 266.339 24.9025L267.974 24.655C268.139 25.315 268.484 25.83 269.009 26.2C269.534 26.565 270.146 26.7475 270.846 26.7475C271.281 26.7475 271.681 26.68 272.046 26.545C272.411 26.405 272.704 26.2075 272.924 25.9525C273.149 25.6925 273.261 25.3825 273.261 25.0225C273.261 24.8275 273.226 24.655 273.156 24.505C273.091 24.355 272.999 24.225 272.879 24.115C272.764 24 272.621 23.9025 272.451 23.8225C272.286 23.7375 272.104 23.665 271.904 23.605L269.136 22.7875C268.866 22.7075 268.591 22.605 268.311 22.48C268.031 22.35 267.774 22.1825 267.539 21.9775C267.309 21.7675 267.121 21.51 266.976 21.205C266.831 20.895 266.759 20.52 266.759 20.08C266.759 19.415 266.929 18.8525 267.269 18.3925C267.614 17.9275 268.079 17.5775 268.664 17.3425C269.249 17.1025 269.904 16.9825 270.629 16.9825C271.359 16.9925 272.011 17.1225 272.586 17.3725C273.166 17.6225 273.646 17.9825 274.026 18.4525C274.411 18.9175 274.676 19.4825 274.821 20.1475L273.141 20.4325C273.066 20.0275 272.906 19.68 272.661 19.39C272.416 19.095 272.116 18.87 271.761 18.715C271.406 18.555 271.021 18.4725 270.606 18.4675C270.206 18.4575 269.839 18.5175 269.504 18.6475C269.174 18.7775 268.909 18.96 268.709 19.195C268.514 19.43 268.416 19.7 268.416 20.005C268.416 20.305 268.504 20.5475 268.679 20.7325C268.854 20.9175 269.069 21.065 269.324 21.175C269.584 21.28 269.841 21.3675 270.096 21.4375L272.091 22C272.341 22.07 272.624 22.165 272.939 22.285C273.259 22.4 273.566 22.5625 273.861 22.7725C274.161 22.9825 274.409 23.2625 274.604 23.6125C274.799 23.9575 274.896 24.3925 274.896 24.9175C274.896 25.4625 274.786 25.9425 274.566 26.3575C274.346 26.7675 274.044 27.1125 273.659 27.3925C273.279 27.6675 272.839 27.875 272.339 28.015C271.839 28.155 271.311 28.225 270.756 28.225Z" fill="white"/>
</svg>
