<svg width="17" height="23" viewBox="0 0 17 23" fill="none" xmlns="http://www.w3.org/2000/svg">
<path d="M0 0.5C0.0186251 0.5 0.0371478 0.5 0.0555682 0.5C0.835979 0.850282 1.4151 1.39888 1.79292 2.1458C1.8142 2.18777 1.82485 2.23302 1.82485 2.28158C1.82689 5.97123 1.82751 9.66097 1.82669 13.3508C1.82669 13.581 1.82792 13.7807 1.83037 13.95C1.83672 14.3616 1.84572 14.6564 1.85739 14.8345C1.94151 16.1171 2.38288 17.265 3.18151 18.278C3.65021 18.8723 4.19443 19.3599 4.81417 19.7407C6.0074 20.4736 7.31198 20.7929 8.72789 20.6983C8.93379 20.6846 9.13682 20.6604 9.33699 20.6258C10.5048 20.4244 11.537 19.9487 12.4335 19.1988C12.5872 19.0701 12.7352 18.9323 12.8777 18.7855C13.979 17.6497 14.5722 16.2926 14.6571 14.7143C14.668 14.5147 14.6662 14.315 14.6519 14.1154C14.5381 12.5181 13.9076 11.159 12.7604 10.0382C12.6141 9.89516 12.4623 9.76138 12.3051 9.63689C11.3798 8.90296 10.3243 8.45217 9.13866 8.28452C8.93256 8.25535 8.72891 8.23697 8.52772 8.22937C8.20229 8.21738 7.87717 8.22897 7.55236 8.26414C7.46312 8.27393 7.3656 8.28143 7.25978 8.28662C7.25694 8.28679 7.2541 8.28637 7.25142 8.28541C7.24875 8.28444 7.2463 8.28294 7.24423 8.281C7.24216 8.27907 7.24051 8.27673 7.23938 8.27414C7.23826 8.27155 7.23768 8.26876 7.23768 8.26594V6.50954C7.23765 6.50232 7.2404 6.49534 7.24539 6.48997C7.25038 6.4846 7.25727 6.48121 7.2647 6.48046C7.67097 6.4411 8.08154 6.42691 8.49641 6.4379C9.52017 6.46488 10.5003 6.66909 11.4369 7.05055C11.6226 7.12608 11.808 7.2102 11.9932 7.30292C13.3903 8.00308 14.4978 9.00687 15.3156 10.3143C15.4235 10.4869 15.5232 10.6614 15.6147 10.8376C16.1317 11.8341 16.4222 12.8891 16.4863 14.0027C16.5691 15.4424 16.2772 16.8089 15.6104 18.1021C15.2602 18.7815 14.8287 19.3863 14.316 19.9166C14.1773 20.0603 14.0903 20.1527 14.0551 20.1939C14.0473 20.2033 14.0333 20.2133 14.013 20.2239C13.9964 20.2327 13.9827 20.2425 13.9719 20.2532C13.7989 20.4257 13.6153 20.5867 13.4211 20.7364C12.0494 21.794 10.4865 22.3819 8.73249 22.5C8.43818 22.5 8.14396 22.5 7.84985 22.5C6.1912 22.4085 4.70068 21.8935 3.3783 20.9549C3.2119 20.8368 3.05134 20.7131 2.89661 20.5838C2.14096 19.9528 1.52398 19.2197 1.04566 18.3844C0.367589 17.1995 0.0240488 15.9163 0.0150433 14.5347C0.01402 14.3841 0.00900553 14.2336 0 14.0834C0 9.55547 0 5.02768 0 0.5Z" fill="#025DB8"/>
<path d="M10.2061 12.5359C9.79658 12.1432 9.31008 11.8961 8.74662 11.7946C8.54358 11.7581 8.34004 11.7449 8.13598 11.7551C7.84392 11.7695 7.55645 11.8246 7.2736 11.9205C7.26953 11.9219 7.26518 11.9223 7.26091 11.9217C7.25664 11.9211 7.25258 11.9196 7.24906 11.9171C7.24555 11.9147 7.24268 11.9115 7.2407 11.9077C7.23872 11.904 7.23768 11.8998 7.23768 11.8956V10.0985C7.2377 10.0852 7.24266 10.0723 7.25163 10.0623C7.2606 10.0522 7.27298 10.0457 7.28649 10.0439C7.39845 10.0287 7.52094 10.0126 7.65398 9.99566C8.09361 9.93911 8.53222 9.94521 8.96981 10.0139C10.022 10.179 10.8998 10.625 11.603 11.3519C12.2975 12.0697 12.71 12.9133 12.8405 13.8828C12.9343 14.579 12.8627 15.2684 12.6256 15.9509C12.4021 16.5944 12.0372 17.1633 11.5309 17.6579C11.3868 17.7988 11.2326 17.93 11.0682 18.0517C10.2559 18.653 9.33474 18.9628 8.30483 18.9812C8.10221 18.9848 7.89795 18.9735 7.69205 18.9473C6.33897 18.7745 5.26455 18.1497 4.46879 17.0731C4.01524 16.4593 3.74405 15.7651 3.65522 14.9906C3.63864 14.8454 3.63035 14.6459 3.63035 14.3924C3.63035 10.7031 3.63035 7.01227 3.63035 3.31983C3.63037 3.31604 3.63136 3.31232 3.63323 3.309C3.63509 3.30567 3.63778 3.30286 3.64104 3.3008C3.6443 3.29875 3.64804 3.29752 3.65191 3.29724C3.65578 3.29695 3.65966 3.2976 3.6632 3.29915C4.45589 3.65023 5.04627 4.21821 5.43432 5.0031C5.44947 5.03347 5.45704 5.06564 5.45704 5.09961C5.45704 8.22257 5.45704 11.3451 5.45704 14.4673C5.45704 14.5354 5.46543 14.6339 5.48222 14.7628C5.49654 14.8723 5.51374 14.9695 5.53379 15.0545C5.69303 15.7294 6.05315 16.2653 6.61415 16.6619C6.78116 16.78 6.95851 16.8791 7.14619 16.9592C7.72991 17.2084 8.33605 17.2545 8.96459 17.0974C9.34262 17.0031 9.68677 16.8331 9.99706 16.5876C10.1547 16.4629 10.2983 16.3212 10.4281 16.1626C10.8249 15.677 11.0285 15.1194 11.0387 14.4898C11.0418 14.2868 11.0214 14.0883 10.9776 13.8945C10.8581 13.3674 10.6009 12.9145 10.2061 12.5359Z" fill="#025DB8"/>
</svg>
