<svg width="170" height="50" viewBox="0 0 170 50" fill="none" xmlns="http://www.w3.org/2000/svg">
<g clip-path="url(#clip0_35_2844)">
<path d="M0.352539 9.28827H6.24509V22.5977H18.6729V9.28827H24.573V41.9587H18.6729V28.3698H6.24509V41.9587H0.352539V9.28827ZM43.2406 31.3175C43.2406 34.0524 41.0489 36.2779 38.3594 36.2779C35.6689 36.2779 33.4785 34.0524 33.4785 31.3175V17.2517H27.8903V31.3175C27.8903 37.1856 32.587 41.9587 38.3594 41.9587C44.1305 41.9587 48.8268 37.1856 48.8268 31.3175V17.2517H43.2406V31.3175ZM64.427 17.4165C61.655 17.4165 59.7201 18.2342 57.8515 20.099V9.28827H52.2451V29.3235C52.2451 36.8228 57.5785 41.9587 63.5704 41.9587C70.2317 41.9587 76.0682 36.7312 76.0682 29.6879C76.0682 22.7339 70.6862 17.4165 64.427 17.4165ZM64.5663 36.6859C60.7674 36.6859 57.8624 33.4604 57.8624 29.6879C57.8624 25.9148 60.7674 22.6883 64.5663 22.6883C67.7852 22.6883 70.6919 25.9148 70.6919 29.6879C70.6919 33.4604 67.7852 36.6859 64.5663 36.6859ZM85.4843 18.8524C85.4843 15.9873 87.3621 15.0789 89.4178 15.0789C91.0729 15.0789 93.2629 16.3514 94.6922 17.897L98.357 13.5342C96.5254 11.0349 92.8157 9.3074 89.7757 9.3074C83.6953 9.3074 79.3142 12.898 79.3142 18.8524C79.3142 29.896 92.6813 26.3953 92.6813 32.5779C92.6813 34.4846 90.8491 36.1678 88.7491 36.1678C85.4397 36.1678 84.3663 34.5316 82.847 32.804L78.7781 37.0755C81.3725 40.3027 84.5901 41.9396 88.4352 41.9396C94.2017 41.9396 98.8512 38.3037 98.8512 32.6218C98.8512 20.3514 85.4843 24.1695 85.4843 18.8524ZM113.61 17.0963C107.619 17.0963 102.285 22.2292 102.285 29.7302V49.8171H107.891V38.955C109.76 40.8185 111.694 41.6376 114.467 41.6376C120.726 41.6376 126.108 36.3208 126.108 29.3668C126.108 22.3225 120.27 17.0963 113.61 17.0963ZM114.606 36.3665C110.808 36.3665 107.903 33.1366 107.903 29.3668C107.903 25.5936 110.808 22.3671 114.606 22.3671C117.825 22.3671 120.732 25.5936 120.732 29.3668C120.732 33.1366 117.825 36.3665 114.606 36.3665ZM167.375 36.6859C164.068 36.6859 163.13 35.2322 163.13 33.0044V23.1426H168.27V18.144H163.13V11.5534L157.454 14.1433V34.2316C157.454 39.3678 160.94 41.9587 165.721 41.9587C166.436 41.9587 167.421 41.9118 167.958 41.7772L169.344 36.5967C168.718 36.6406 168.003 36.6859 167.375 36.6859Z" fill="#45535E"/>
<path d="M152.591 23.4332C151.516 21.5534 150.005 20.0463 148.115 18.9117C146.702 18.0758 145.238 17.5453 143.587 17.3174V11.3443C145.238 10.6319 146.262 9.05503 146.262 7.21544C146.262 4.70805 144.284 2.67617 141.82 2.67617C139.353 2.67617 137.341 4.70805 137.341 7.21544C137.341 9.05503 138.306 10.6319 139.956 11.3443V17.3201C138.636 17.5141 137.267 17.9326 136.017 18.5755C133.463 16.6037 125.089 10.1349 120.19 6.35671C120.306 5.93087 120.396 5.49195 120.396 5.02886C120.396 2.25168 118.183 0.000671387 115.451 0.000671387C112.718 0.000671387 110.507 2.25168 110.507 5.02886C110.507 7.8057 112.72 10.0574 115.453 10.0574C116.385 10.0574 117.247 9.7802 117.991 9.3245L119.025 10.1218L133.23 20.5272C132.479 21.2282 131.78 22.0255 131.221 22.9201C130.087 24.744 129.394 26.7507 129.394 28.9396V29.3963C129.394 30.9329 129.681 32.3836 130.17 33.7463C130.601 34.9362 131.231 36.0181 132.011 36.9963L127.296 41.801C126.613 41.5425 125.871 41.4894 125.159 41.6482C124.447 41.8069 123.795 42.1708 123.281 42.6963C122.925 43.0564 122.642 43.4848 122.45 43.9565C122.258 44.4283 122.161 44.9341 122.162 45.4446C122.163 46.4826 122.56 47.4581 123.283 48.1919C123.636 48.5541 124.058 48.8413 124.522 49.0368C124.986 49.2323 125.483 49.3322 125.985 49.3309C126.488 49.3322 126.985 49.2322 127.449 49.0367C127.913 48.8412 128.335 48.5541 128.689 48.1919C129.045 47.8318 129.327 47.4036 129.519 46.9321C129.711 46.4606 129.809 45.955 129.808 45.4446C129.808 45.043 129.747 44.651 129.632 44.2785L134.505 39.3238C135.173 39.7929 135.894 40.1879 136.67 40.5285C138.2 41.201 139.889 41.6107 141.737 41.6107H142.076C144.119 41.6107 146.046 41.1228 147.858 40.1248C149.767 39.0701 151.261 37.6278 152.39 35.7866C153.525 33.9403 154.15 31.9003 154.15 29.656V29.544C154.15 27.3362 153.647 25.2993 152.591 23.4332ZM146.637 33.8268C145.315 35.3211 143.794 36.2416 142.076 36.2416H141.792C140.811 36.2416 139.85 35.9658 138.91 35.4641C137.851 34.9117 137.045 34.1238 136.386 33.1262C135.705 32.147 135.335 31.0779 135.335 29.9443V29.6C135.335 28.4856 135.546 27.4289 136.076 26.4309C136.642 25.3399 137.408 24.4916 138.426 23.8171C139.425 23.1473 140.493 22.8188 141.682 22.8188H141.792C142.87 22.8188 143.891 23.0349 144.854 23.5359C145.835 24.0701 146.637 24.8 147.259 25.7601C147.862 26.7205 148.222 27.7564 148.337 28.8849C148.355 29.1195 148.364 29.3597 148.364 29.5893C148.364 31.1208 147.789 32.5393 146.637 33.8268Z" fill="#F8761F"/>
</g>
<defs>
<clipPath id="clip0_35_2844">
<rect width="169" height="50" fill="white" transform="translate(0.333008)"/>
</clipPath>
</defs>
</svg>
