<svg width="19" height="18" viewBox="0 0 19 18" fill="none" xmlns="http://www.w3.org/2000/svg">
<path d="M8.33301 8.16666V5.66666L12.4997 9L8.33301 12.3333V9.83333H0.833008V8.16666H8.33301ZM2.04784 11.5H3.81761C4.80658 13.9432 7.20186 15.6667 9.99967 15.6667C13.6816 15.6667 16.6663 12.6819 16.6663 9C16.6663 5.3181 13.6816 2.33333 9.99967 2.33333C7.20186 2.33333 4.80658 4.05681 3.81761 6.5H2.04784C3.10973 3.11907 6.26831 0.666664 9.99967 0.666664C14.602 0.666664 18.333 4.39762 18.333 9C18.333 13.6023 14.602 17.3333 9.99967 17.3333C6.26831 17.3333 3.10973 14.8809 2.04784 11.5Z" fill="#025DB8"/>
</svg>
