<svg width="64" height="64" viewBox="0 0 64 64" fill="none" xmlns="http://www.w3.org/2000/svg">
<rect width="64" height="64" rx="2" fill="white" fill-opacity="0.1"/>
<path d="M44.3955 41.5408L42.4735 42.9437C42.008 43.2835 41.3802 42.8274 41.5595 42.2797L42.2998 40.0181L40.366 38.6196C39.8996 38.2823 40.1382 37.5452 40.7138 37.5452H43.1003L43.8308 35.2853C44.0079 34.7373 44.7831 34.7373 44.9603 35.2853L45.6908 37.5452H48.0773C48.6529 37.5452 48.8915 38.2823 48.4251 38.6196L46.4913 40.0181L47.2316 42.2797C47.4109 42.8274 46.7831 43.2835 46.3176 42.9437L44.3955 41.5408Z" stroke="white" stroke-width="1.6" stroke-miterlimit="10" stroke-linecap="round" stroke-linejoin="round"/>
<path d="M20.2764 41.5408L22.1985 42.9437C22.664 43.2835 23.2918 42.8274 23.1125 42.2797L22.3722 40.0181L24.3059 38.6196C24.7724 38.2823 24.5338 37.5452 23.9582 37.5452H21.5716L20.8411 35.2853C20.664 34.7373 19.8888 34.7373 19.7117 35.2853L18.9811 37.5452H16.5946C16.019 37.5452 15.7804 38.2823 16.2469 38.6196L18.1806 40.0181L17.4403 42.2797C17.261 42.8274 17.8888 43.2835 18.3543 42.9437L20.2764 41.5408Z" stroke="white" stroke-width="1.6" stroke-miterlimit="10" stroke-linecap="round" stroke-linejoin="round"/>
<path d="M32.3363 40.1018L28.5942 42.8331C27.688 43.4945 26.4658 42.6065 26.8148 41.5403L28.2561 37.1374L24.4913 34.4147C23.5833 33.758 24.0478 32.3229 25.1684 32.3229H29.8145L31.2368 27.9231C31.5816 26.8564 33.0909 26.8564 33.4357 27.9231L34.858 32.3229H39.5041C40.6247 32.3229 41.0893 33.758 40.1812 34.4147L36.4165 37.1374L37.8577 41.5403C38.2067 42.6065 36.9845 43.4945 36.0783 42.8331L32.3363 40.1018Z" stroke="white" stroke-width="1.6" stroke-miterlimit="10" stroke-linecap="round" stroke-linejoin="round"/>
<path d="M32.3359 23.0447V20.5476" stroke="white" stroke-width="1.6" stroke-miterlimit="10" stroke-linecap="round" stroke-linejoin="round"/>
<path d="M39.1094 23.5315L42.6411 19.9998" stroke="white" stroke-width="1.6" stroke-miterlimit="10" stroke-linecap="round" stroke-linejoin="round"/>
<path d="M25.5629 23.5315L22.0312 19.9998" stroke="white" stroke-width="1.6" stroke-miterlimit="10" stroke-linecap="round" stroke-linejoin="round"/>
</svg>
