<svg width="86" height="60" viewBox="0 0 86 60" fill="none" xmlns="http://www.w3.org/2000/svg">
<g clip-path="url(#clip0_35_2847)">
<path d="M35.518 6.55033C38.2673 3.68566 42.095 1.909 46.328 1.909C51.9557 1.909 56.8653 5.047 59.4797 9.70533C61.8184 8.6607 64.3516 8.12227 66.913 8.12533C77.0627 8.12533 85.291 16.4253 85.291 26.6637C85.291 36.9033 77.0627 45.2037 66.913 45.2037C65.6973 45.2043 64.4846 45.0834 63.293 44.8427C60.9903 48.9497 56.603 51.7243 51.567 51.7243C49.5304 51.7269 47.5202 51.2643 45.6897 50.3717C43.3557 55.8617 37.9177 59.7113 31.5797 59.7113C24.9797 59.7113 19.355 55.535 17.1957 49.678C16.2523 49.8787 15.2747 49.983 14.2717 49.983C6.41367 49.983 0.0430052 43.547 0.0430052 35.6063C0.0373444 33.0898 0.691288 30.6158 1.93966 28.4308C3.18804 26.2457 4.98726 24.426 7.158 23.153C6.25667 21.0781 5.79279 18.8396 5.79534 16.5773C5.79534 7.44533 13.209 0.0426636 22.3537 0.0426636C27.7223 0.0426636 32.4933 2.59533 35.518 6.55033Z" fill="#00A1E0"/>
<path d="M12.3903 30.9853C12.337 31.125 12.4097 31.154 12.427 31.1786C12.587 31.295 12.7497 31.3786 12.9137 31.472C13.7833 31.9336 14.604 32.0686 15.4627 32.0686C17.2113 32.0686 18.297 31.1386 18.297 29.641V29.612C18.297 28.2276 17.0717 27.7246 15.9217 27.362L15.7723 27.313C14.9053 27.0313 14.1573 26.7886 14.1573 26.2176V26.1876C14.1573 25.6993 14.5943 25.3396 15.272 25.3396C16.025 25.3396 16.9187 25.5896 17.4943 25.908C17.4943 25.908 17.663 26.0173 17.725 25.8533C17.759 25.766 18.0503 24.9816 18.081 24.8966C18.1137 24.8043 18.0553 24.7363 17.996 24.7C17.339 24.3 16.4307 24.027 15.4907 24.027L15.3157 24.0283C13.7153 24.0283 12.598 24.995 12.598 26.3806V26.4096C12.598 27.8706 13.8307 28.344 14.9853 28.6743L15.1713 28.7316C16.0127 28.99 16.738 29.2123 16.738 29.805V29.834C16.738 30.3756 16.2667 30.779 15.5063 30.779C15.2113 30.779 14.2703 30.773 13.2537 30.1303C13.131 30.0586 13.0593 30.0066 12.9647 29.9496C12.9147 29.918 12.79 29.863 12.7353 30.0283L12.3903 30.9853ZM37.9903 30.9853C37.937 31.125 38.0097 31.154 38.027 31.1786C38.187 31.295 38.3497 31.3786 38.5137 31.472C39.383 31.9336 40.204 32.0686 41.0627 32.0686C42.8113 32.0686 43.897 31.1386 43.897 29.641V29.612C43.897 28.2276 42.6717 27.7246 41.5217 27.362L41.3723 27.313C40.5053 27.0313 39.757 26.7886 39.757 26.2176V26.1876C39.757 25.6993 40.1943 25.3396 40.872 25.3396C41.625 25.3396 42.5187 25.5896 43.0943 25.908C43.0943 25.908 43.263 26.0173 43.325 25.8533C43.359 25.766 43.6503 24.9816 43.6807 24.8966C43.7137 24.8043 43.6553 24.7363 43.5957 24.7C42.939 24.3 42.0303 24.027 41.0907 24.027L40.9157 24.0283C39.315 24.0283 38.198 24.995 38.198 26.3806V26.4096C38.198 27.8706 39.4303 28.344 40.5853 28.6743L40.771 28.7316C41.6127 28.99 42.339 29.2123 42.339 29.805V29.834C42.339 30.3756 41.8663 30.779 41.1063 30.779C40.3086 30.7847 39.5262 30.5594 38.8537 30.1303C38.731 30.0586 38.658 30.009 38.566 29.9496C38.5343 29.929 38.386 29.8716 38.335 30.0283L37.9903 30.9853ZM55.4667 28.0523C55.4667 28.899 55.3087 29.5656 54.998 30.0366C54.6907 30.5033 54.2257 30.73 53.577 30.73C52.9273 30.73 52.4647 30.5043 52.1623 30.0366C51.8563 29.5666 51.701 28.899 51.701 28.0523C51.701 27.2073 51.8563 26.5416 52.1623 26.0756C52.4647 25.614 52.9273 25.3893 53.577 25.3893C54.2257 25.3893 54.6903 25.614 54.999 26.0753C55.309 26.542 55.4667 27.2073 55.4667 28.0523ZM56.9263 26.4833C56.783 25.999 56.5597 25.5716 56.262 25.2156C55.9643 24.8586 55.588 24.5723 55.141 24.3633C54.6953 24.1556 54.1683 24.05 53.577 24.05C52.9843 24.05 52.4573 24.1556 52.0117 24.3633C51.565 24.572 51.1883 24.8586 50.8897 25.2156C50.5933 25.5726 50.3697 26.0003 50.2253 26.4833C50.0833 26.9656 50.012 27.4926 50.012 28.0523C50.012 28.6123 50.0833 29.1406 50.2253 29.6213C50.37 30.1046 50.592 30.532 50.891 30.8893C51.1958 31.2521 51.579 31.541 52.0117 31.7343C52.4583 31.9373 52.9843 32.0403 53.577 32.0403C54.1683 32.0403 54.6943 31.937 55.141 31.7343C55.5738 31.5411 55.9571 31.2521 56.262 30.8893C56.5597 30.5333 56.783 30.106 56.9263 29.6213C57.0697 29.1393 57.1413 28.6113 57.1413 28.0523C57.1413 27.494 57.0697 26.9656 56.9263 26.4833ZM68.9127 30.5043C68.8643 30.3623 68.727 30.4156 68.727 30.4156C68.5147 30.497 68.2887 30.5723 68.0483 30.61C67.7834 30.6493 67.5158 30.6683 67.248 30.667C66.5413 30.667 65.98 30.457 65.578 30.0416C65.175 29.6263 64.949 28.955 64.9513 28.0463C64.954 27.2196 65.1533 26.5976 65.5113 26.124C65.8673 25.653 66.4087 25.4113 67.1313 25.4113C67.7337 25.4113 68.1927 25.4803 68.6737 25.6323C68.6737 25.6323 68.789 25.6823 68.8437 25.5313C68.971 25.177 69.066 24.923 69.202 24.5333C69.2407 24.4226 69.146 24.3753 69.112 24.362C68.9227 24.288 68.4757 24.1676 68.138 24.1166C67.8223 24.0683 67.4533 24.0426 67.0427 24.0426C66.4293 24.0426 65.883 24.147 65.4153 24.356C64.949 24.5636 64.5533 24.8503 64.24 25.2073C63.9267 25.564 63.6887 25.9916 63.5297 26.475C63.3717 26.957 63.2917 27.4866 63.2917 28.0463C63.2917 29.257 63.6183 30.236 64.263 30.9523C64.909 31.6713 65.8797 32.0366 67.1447 32.0366C67.8927 32.0366 68.6603 31.885 69.2113 31.6676C69.2113 31.6676 69.3173 31.6166 69.2713 31.494L68.9127 30.5043ZM71.467 27.2416C71.536 26.7716 71.666 26.3806 71.8663 26.076C72.1687 25.6133 72.63 25.3593 73.2787 25.3593C73.927 25.3593 74.3557 25.6143 74.663 26.076C74.867 26.3806 74.9557 26.7886 74.9907 27.2416H71.467ZM76.3813 26.2083C76.2573 25.7406 75.95 25.2683 75.7487 25.0523C75.4303 24.7096 75.1197 24.4703 74.811 24.337C74.3631 24.1471 73.8815 24.0496 73.395 24.0503C72.7783 24.0503 72.2183 24.1536 71.7643 24.367C71.309 24.581 70.9263 24.8723 70.6263 25.2356C70.3263 25.5973 70.1007 26.0286 69.9573 26.518C69.8127 27.0046 69.74 27.5356 69.74 28.0953C69.74 28.665 69.8153 29.1953 69.9647 29.6726C70.115 30.1536 70.3557 30.5776 70.6813 30.9283C71.0053 31.2816 71.423 31.5586 71.9233 31.7516C72.42 31.9436 73.0233 32.0433 73.7167 32.042C75.1437 32.037 75.8957 31.719 76.205 31.5476C76.2597 31.5176 76.312 31.464 76.2463 31.311L75.9233 30.4063C75.875 30.2713 75.7377 30.3213 75.7377 30.3213C75.3843 30.4523 74.8817 30.688 73.7097 30.6856C72.9433 30.6843 72.375 30.4583 72.0193 30.105C71.6537 29.7433 71.4753 29.2116 71.4437 28.461L76.385 28.4656C76.385 28.4656 76.515 28.4633 76.5283 28.337C76.533 28.2836 76.6983 27.3216 76.3813 26.2083ZM31.8947 27.2416C31.965 26.7716 32.0937 26.3806 32.2943 26.076C32.5967 25.6133 33.058 25.3593 33.7063 25.3593C34.355 25.3593 34.7837 25.6143 35.092 26.076C35.295 26.3806 35.3837 26.7886 35.4187 27.2416H31.8947ZM36.808 26.2083C36.684 25.7406 36.378 25.2683 36.1763 25.0523C35.8583 24.7096 35.5473 24.4703 35.239 24.337C34.7911 24.1471 34.3095 24.0496 33.823 24.0503C33.2073 24.0503 32.6463 24.1536 32.1923 24.367C31.7367 24.581 31.3543 24.8723 31.0543 25.2356C30.7543 25.5973 30.5287 26.0286 30.3853 26.518C30.242 27.0046 30.168 27.5356 30.168 28.0953C30.168 28.665 30.243 29.1953 30.3927 29.6726C30.543 30.1536 30.7837 30.5776 31.109 30.9283C31.4333 31.2816 31.851 31.5586 32.3513 31.7516C32.848 31.9436 33.4513 32.0433 34.1447 32.042C35.5717 32.037 36.3233 31.719 36.633 31.5476C36.6877 31.5176 36.7397 31.464 36.6743 31.311L36.3527 30.4063C36.3027 30.2713 36.1657 30.3213 36.1657 30.3213C35.8123 30.4523 35.3107 30.688 34.1363 30.6856C33.3713 30.6843 32.803 30.4583 32.4473 30.105C32.0817 29.7433 31.903 29.2116 31.8717 28.461L36.8127 28.4656C36.8127 28.4656 36.9427 28.4633 36.956 28.337C36.961 28.2836 37.126 27.3216 36.808 26.2083ZM21.2143 30.477C21.021 30.323 20.9943 30.284 20.929 30.1843C20.8317 30.0326 20.782 29.8163 20.782 29.542C20.782 29.1073 20.9253 28.7953 21.2227 28.5853C21.2193 28.5863 21.6477 28.2146 22.656 28.228C23.3637 28.238 23.9963 28.3423 23.9963 28.3423V30.589H23.9977C23.9977 30.589 23.3697 30.7236 22.663 30.766C21.6573 30.8266 21.2107 30.476 21.2143 30.477ZM23.1803 27.0053C22.98 26.9906 22.7203 26.982 22.4093 26.982C21.9853 26.982 21.576 27.0353 21.1927 27.1386C20.8225 27.2347 20.4728 27.3968 20.1603 27.6173C19.862 27.8301 19.6167 28.1089 19.4437 28.432C19.269 28.7576 19.1803 29.1413 19.1803 29.571C19.1803 30.0083 19.2553 30.3883 19.406 30.6993C19.5529 31.0067 19.7747 31.2723 20.051 31.4716C20.3253 31.672 20.6643 31.819 21.0577 31.9076C21.445 31.9963 21.8843 32.041 22.3653 32.041C22.872 32.041 23.377 32 23.8663 31.916C24.2828 31.8443 24.6978 31.7641 25.111 31.6756C25.275 31.6366 25.4573 31.587 25.4573 31.587C25.58 31.5566 25.57 31.4253 25.57 31.4253L25.5677 26.907C25.5677 25.916 25.303 25.1813 24.782 24.726C24.2637 24.2716 23.4997 24.0423 22.5123 24.0423C22.1423 24.0423 21.5457 24.0933 21.189 24.165C21.189 24.165 20.109 24.3736 19.6647 24.721C19.6647 24.721 19.5677 24.7816 19.621 24.9176L19.971 25.8576C20.0143 25.979 20.1323 25.9376 20.1323 25.9376C20.1323 25.9376 20.17 25.9233 20.2137 25.8976C21.1643 25.3803 22.3667 25.3963 22.3667 25.3963C22.901 25.3963 23.3113 25.503 23.5883 25.7156C23.858 25.922 23.995 26.234 23.995 26.8923V27.101C23.57 27.0403 23.1803 27.0053 23.1803 27.0053ZM63.0337 24.459C63.0408 24.4425 63.0445 24.4247 63.0446 24.4068C63.0447 24.3888 63.0412 24.371 63.0343 24.3545C63.0273 24.3379 63.0171 24.3229 63.0042 24.3104C62.9914 24.2979 62.9761 24.2881 62.9593 24.2816C62.8757 24.249 62.4553 24.1603 62.131 24.1396C61.5107 24.102 61.1657 24.2063 60.8573 24.345C60.5513 24.4833 60.2113 24.7066 60.0217 24.9606V24.3593C60.0217 24.2756 59.9623 24.209 59.8797 24.209H58.613C58.5307 24.209 58.471 24.2756 58.471 24.3593V31.7293C58.471 31.812 58.539 31.88 58.6217 31.88H59.9197C59.9394 31.8799 59.9589 31.8759 59.977 31.8683C59.9952 31.8607 60.0117 31.8496 60.0255 31.8356C60.0394 31.8216 60.0504 31.805 60.0578 31.7868C60.0653 31.7685 60.0691 31.749 60.069 31.7293V28.0473C60.069 27.5533 60.1237 27.06 60.233 26.7506C60.3397 26.4443 60.4857 26.1993 60.6653 26.023C60.837 25.854 61.0464 25.7283 61.2763 25.6563C61.5057 25.586 61.7597 25.563 61.9393 25.563C62.198 25.563 62.482 25.6296 62.482 25.6296C62.5767 25.6406 62.6303 25.5823 62.662 25.4963C62.7467 25.2703 62.9873 24.5936 63.0333 24.459" fill="white"/>
<path d="M50.848 21.0433C50.6877 20.9949 50.5246 20.9559 50.3597 20.9267C50.1378 20.8903 49.9132 20.8733 49.6883 20.876C48.7943 20.876 48.09 21.1283 47.596 21.6263C47.104 22.1217 46.77 22.876 46.6027 23.868L46.5417 24.202H45.4197C45.4197 24.202 45.2837 24.197 45.2547 24.3453L45.0713 25.374C45.058 25.471 45.1003 25.533 45.2313 25.533H46.3233L45.2157 31.7163C45.1297 32.2143 45.03 32.6237 44.9193 32.9343C44.8113 33.2403 44.706 33.47 44.5747 33.6377C44.448 33.7977 44.3293 33.917 44.1227 33.986C43.9527 34.0433 43.756 34.07 43.541 34.07C43.422 34.07 43.263 34.0503 43.1453 34.0263C43.0531 34.0083 42.9633 33.9792 42.878 33.9397C42.878 33.9397 42.7507 33.8913 42.6997 34.019C42.6597 34.1247 42.368 34.9247 42.333 35.0233C42.299 35.1217 42.3473 35.198 42.4093 35.221C42.555 35.272 42.663 35.306 42.861 35.3533C43.1357 35.418 43.3677 35.4213 43.585 35.4213C44.039 35.4213 44.4543 35.357 44.798 35.2333C45.143 35.1083 45.444 34.8907 45.7113 34.5967C45.999 34.2787 46.18 33.946 46.3523 33.4907C46.5237 33.0413 46.6707 32.4827 46.787 31.832L47.9007 25.533H49.528C49.528 25.533 49.665 25.5377 49.693 25.3883L49.8777 24.361C49.8897 24.2627 49.8487 24.202 49.716 24.202H48.136C48.1447 24.1667 48.2163 23.6107 48.3973 23.0873C48.475 22.865 48.6207 22.684 48.7433 22.5603C48.859 22.4427 49.001 22.3544 49.1577 22.3027C49.3143 22.2517 49.4927 22.2273 49.6883 22.2273C49.8363 22.2273 49.9833 22.2443 50.0937 22.2673C50.247 22.3003 50.3063 22.3173 50.3463 22.3293C50.508 22.378 50.5297 22.3307 50.5613 22.2527L50.939 21.216C50.978 21.1043 50.882 21.0567 50.848 21.0433ZM28.774 31.73C28.774 31.8123 28.7143 31.8793 28.632 31.8793H27.3217C27.239 31.8793 27.1807 31.8127 27.1807 31.73V21.1843C27.1807 21.102 27.239 21.035 27.3217 21.035H28.6317C28.7143 21.035 28.774 21.1017 28.774 21.1843V31.73Z" fill="white"/>
</g>
<defs>
<clipPath id="clip0_35_2847">
<rect width="85.3333" height="60" fill="white"/>
</clipPath>
</defs>
</svg>
