<svg width="276" height="40" viewBox="0 0 276 40" fill="none" xmlns="http://www.w3.org/2000/svg">
<rect x="0.108398" width="275.783" height="40" rx="2" fill="#FFB444" fill-opacity="0.08"/>
<path d="M20.1084 10C20.1251 10 20.1417 10 20.1582 10C20.8574 10.3184 21.3762 10.8172 21.7147 11.4962C21.7338 11.5343 21.7433 11.5755 21.7433 11.6196C21.7451 14.9738 21.7457 18.3282 21.745 21.6826C21.745 21.8918 21.7461 22.0734 21.7483 22.2272C21.7539 22.6015 21.762 22.8695 21.7725 23.0313C21.8478 24.1974 22.2433 25.2409 22.9588 26.1619C23.3787 26.7021 23.8663 27.1453 24.4215 27.4916C25.4905 28.1579 26.6593 28.448 27.9279 28.3621C28.1123 28.3496 28.2942 28.3276 28.4736 28.2962C29.5199 28.1131 30.4446 27.6807 31.2477 26.9989C31.3854 26.8819 31.5181 26.7567 31.6457 26.6232C32.6324 25.5906 33.1638 24.3569 33.2399 22.9221C33.2497 22.7406 33.2481 22.5591 33.2353 22.3777C33.1333 20.9255 32.5684 19.69 31.5407 18.6711C31.4096 18.5411 31.2736 18.4194 31.1328 18.3063C30.3038 17.6391 29.3581 17.2292 28.2959 17.0768C28.1112 17.0503 27.9288 17.0336 27.7485 17.0267C27.457 17.0158 27.1657 17.0263 26.8747 17.0583C26.7947 17.0672 26.7074 17.074 26.6126 17.0787C26.61 17.0789 26.6075 17.0785 26.6051 17.0776C26.6027 17.0768 26.6005 17.0754 26.5986 17.0736C26.5968 17.0719 26.5953 17.0698 26.5943 17.0674C26.5933 17.065 26.5927 17.0625 26.5927 17.0599V15.4632C26.5927 15.4567 26.5952 15.4503 26.5997 15.4454C26.6041 15.4405 26.6103 15.4375 26.617 15.4368C26.9809 15.401 27.3488 15.3881 27.7205 15.3981C28.6377 15.4226 29.5158 15.6083 30.3549 15.955C30.5212 16.0237 30.6874 16.1002 30.8533 16.1845C32.105 16.821 33.0972 17.7335 33.8299 18.9221C33.9266 19.079 34.0159 19.2376 34.0978 19.3978C34.561 20.3037 34.8213 21.2629 34.8787 22.2752C34.953 23.584 34.6914 24.8262 34.094 26.0019C33.7802 26.6195 33.3937 27.1694 32.9343 27.6515C32.81 27.7821 32.7321 27.8661 32.7006 27.9035C32.6936 27.9121 32.681 27.9212 32.6629 27.9308C32.648 27.9388 32.6357 27.9477 32.626 27.9575C32.4711 28.1143 32.3066 28.2607 32.1326 28.3967C30.9036 29.3582 29.5034 29.8926 27.932 30C27.6683 30 27.4047 30 27.1412 30C25.6552 29.9168 24.3198 29.4486 23.1351 28.5954C22.986 28.488 22.8421 28.3756 22.7035 28.258C22.0265 27.6844 21.4738 27.0179 21.0452 26.2586C20.4377 25.1814 20.1299 24.0148 20.1219 22.7589C20.121 22.6219 20.1165 22.4851 20.1084 22.3485C20.1084 18.2322 20.1084 14.1161 20.1084 10Z" fill="#EA981C"/>
<path d="M29.2522 20.9417C28.8853 20.5847 28.4494 20.3601 27.9446 20.2678C27.7627 20.2346 27.5804 20.2226 27.3976 20.2319C27.1359 20.245 26.8783 20.2951 26.6249 20.3823C26.6213 20.3835 26.6174 20.3839 26.6136 20.3834C26.6097 20.3828 26.6061 20.3814 26.6029 20.3792C26.5998 20.377 26.5972 20.3741 26.5955 20.3707C26.5937 20.3673 26.5928 20.3635 26.5927 20.3597V18.7259C26.5928 18.7138 26.5972 18.7021 26.6052 18.693C26.6133 18.6839 26.6244 18.6779 26.6365 18.6763C26.7368 18.6625 26.8465 18.6479 26.9657 18.6324C27.3596 18.581 27.7526 18.5866 28.1446 18.649C29.0873 18.7991 29.8737 19.2045 30.5037 19.8654C31.1259 20.5179 31.4955 21.2848 31.6124 22.1662C31.6964 22.7991 31.6323 23.4258 31.4199 24.0463C31.2197 24.6312 30.8927 25.1485 30.4391 25.5981C30.31 25.7262 30.1718 25.8455 30.0246 25.9561C29.2968 26.5027 28.4715 26.7844 27.5488 26.8011C27.3673 26.8044 27.1843 26.7941 26.9998 26.7703C25.7876 26.6132 24.825 26.0452 24.1121 25.0665C23.7057 24.5084 23.4627 23.8774 23.3832 23.1733C23.3683 23.0412 23.3609 22.8599 23.3609 22.6294C23.3609 19.2756 23.3609 15.9202 23.3609 12.5635C23.3609 12.56 23.3618 12.5567 23.3635 12.5536C23.3651 12.5506 23.3675 12.5481 23.3705 12.5462C23.3734 12.5443 23.3767 12.5432 23.3802 12.5429C23.3837 12.5427 23.3871 12.5433 23.3903 12.5447C24.1005 12.8638 24.6294 13.3802 24.9771 14.0937C24.9907 14.1213 24.9974 14.1506 24.9974 14.1815C24.9974 17.0205 24.9974 19.8592 24.9974 22.6975C24.9974 22.7595 25.005 22.849 25.02 22.9662C25.0328 23.0658 25.0482 23.1541 25.0662 23.2313C25.2089 23.845 25.5315 24.3321 26.0341 24.6926C26.1837 24.8 26.3426 24.8901 26.5108 24.9629C27.0337 25.1895 27.5768 25.2313 28.1399 25.0886C28.4786 25.0028 28.7869 24.8483 29.0649 24.6251C29.2061 24.5117 29.3348 24.3829 29.4511 24.2387C29.8066 23.7973 29.989 23.2904 29.9982 22.718C30.0009 22.5334 29.9827 22.353 29.9434 22.1768C29.8363 21.6976 29.6059 21.2859 29.2522 20.9417Z" fill="#EA981C"/>
<path d="M47.9406 25.5V14.7H54.8406V16.1775H49.5081V19.2075H53.9406V20.685H49.5081V24.0225H54.8406V25.5H47.9406ZM55.7418 25.5L59.4243 20.0325L55.8393 14.7H57.7593L60.3918 18.705L63.0093 14.7H64.9368L61.3518 20.0325L65.0268 25.5H63.1068L60.3918 21.3675L57.6693 25.5H55.7418ZM66.2219 25.5V14.7H70.5869C70.6919 14.7 70.8219 14.705 70.9769 14.715C71.1319 14.72 71.2794 14.735 71.4194 14.76C72.0194 14.855 72.5194 15.06 72.9194 15.375C73.3244 15.69 73.6269 16.0875 73.8269 16.5675C74.0269 17.0475 74.1269 17.5775 74.1269 18.1575C74.1269 18.7425 74.0269 19.275 73.8269 19.755C73.6269 20.235 73.3244 20.6325 72.9194 20.9475C72.5194 21.2625 72.0194 21.4675 71.4194 21.5625C71.2794 21.5825 71.1294 21.5975 70.9694 21.6075C70.8144 21.6175 70.6869 21.6225 70.5869 21.6225H67.7894V25.5H66.2219ZM67.7894 20.1375H70.5269C70.6269 20.1375 70.7369 20.1325 70.8569 20.1225C70.9819 20.1125 71.0994 20.095 71.2094 20.07C71.5294 19.995 71.7869 19.8575 71.9819 19.6575C72.1769 19.4525 72.3169 19.2175 72.4019 18.9525C72.4869 18.6875 72.5294 18.4225 72.5294 18.1575C72.5294 17.8925 72.4869 17.63 72.4019 17.37C72.3169 17.105 72.1769 16.8725 71.9819 16.6725C71.7869 16.4675 71.5294 16.3275 71.2094 16.2525C71.0994 16.2225 70.9819 16.2025 70.8569 16.1925C70.7369 16.1825 70.6269 16.1775 70.5269 16.1775H67.7894V20.1375ZM75.7762 25.5V14.7H77.3437V24.0225H82.2337V25.5H75.7762ZM87.7216 25.725C86.6416 25.725 85.7216 25.49 84.9616 25.02C84.2016 24.545 83.6191 23.885 83.2141 23.04C82.8141 22.195 82.6141 21.215 82.6141 20.1C82.6141 18.985 82.8141 18.005 83.2141 17.16C83.6191 16.315 84.2016 15.6575 84.9616 15.1875C85.7216 14.7125 86.6416 14.475 87.7216 14.475C88.7966 14.475 89.7141 14.7125 90.4741 15.1875C91.2391 15.6575 91.8216 16.315 92.2216 17.16C92.6216 18.005 92.8216 18.985 92.8216 20.1C92.8216 21.215 92.6216 22.195 92.2216 23.04C91.8216 23.885 91.2391 24.545 90.4741 25.02C89.7141 25.49 88.7966 25.725 87.7216 25.725ZM87.7216 24.2325C88.4866 24.2425 89.1216 24.075 89.6266 23.73C90.1366 23.38 90.5191 22.895 90.7741 22.275C91.0291 21.65 91.1566 20.925 91.1566 20.1C91.1566 19.275 91.0291 18.555 90.7741 17.94C90.5191 17.32 90.1366 16.8375 89.6266 16.4925C89.1216 16.1475 88.4866 15.9725 87.7216 15.9675C86.9566 15.9575 86.3191 16.125 85.8091 16.47C85.3041 16.815 84.9241 17.3 84.6691 17.925C84.4141 18.55 84.2841 19.275 84.2791 20.1C84.2741 20.925 84.3991 21.6475 84.6541 22.2675C84.9091 22.8825 85.2916 23.3625 85.8016 23.7075C86.3166 24.0525 86.9566 24.2275 87.7216 24.2325ZM94.3176 25.5V14.7H98.6826C98.7876 14.7 98.9176 14.705 99.0726 14.715C99.2276 14.72 99.3751 14.735 99.5151 14.76C100.115 14.855 100.615 15.06 101.015 15.375C101.42 15.69 101.723 16.0875 101.923 16.5675C102.123 17.0475 102.223 17.5775 102.223 18.1575C102.223 19.0175 102.003 19.76 101.563 20.385C101.123 21.005 100.463 21.3925 99.5826 21.5475L98.9451 21.6225H95.8851V25.5H94.3176ZM100.633 25.5L98.5026 21.105L100.085 20.7L102.425 25.5H100.633ZM95.8851 20.1375H98.6226C98.7226 20.1375 98.8326 20.1325 98.9526 20.1225C99.0776 20.1125 99.1951 20.095 99.3051 20.07C99.6251 19.995 99.8826 19.8575 100.078 19.6575C100.273 19.4525 100.413 19.2175 100.498 18.9525C100.583 18.6875 100.625 18.4225 100.625 18.1575C100.625 17.8925 100.583 17.63 100.498 17.37C100.413 17.105 100.273 16.8725 100.078 16.6725C99.8826 16.4675 99.6251 16.3275 99.3051 16.2525C99.1951 16.2225 99.0776 16.2025 98.9526 16.1925C98.8326 16.1825 98.7226 16.1775 98.6226 16.1775H95.8851V20.1375ZM104.073 25.5V14.7H110.973V16.1775H105.641V19.2075H110.073V20.685H105.641V24.0225H110.973V25.5H104.073ZM120.285 25.725C119.205 25.725 118.285 25.49 117.525 25.02C116.765 24.545 116.183 23.885 115.778 23.04C115.378 22.195 115.178 21.215 115.178 20.1C115.178 18.985 115.378 18.005 115.778 17.16C116.183 16.315 116.765 15.6575 117.525 15.1875C118.285 14.7125 119.205 14.475 120.285 14.475C121.36 14.475 122.278 14.7125 123.038 15.1875C123.803 15.6575 124.385 16.315 124.785 17.16C125.185 18.005 125.385 18.985 125.385 20.1C125.385 21.215 125.185 22.195 124.785 23.04C124.385 23.885 123.803 24.545 123.038 25.02C122.278 25.49 121.36 25.725 120.285 25.725ZM120.285 24.2325C121.05 24.2425 121.685 24.075 122.19 23.73C122.7 23.38 123.083 22.895 123.338 22.275C123.593 21.65 123.72 20.925 123.72 20.1C123.72 19.275 123.593 18.555 123.338 17.94C123.083 17.32 122.7 16.8375 122.19 16.4925C121.685 16.1475 121.05 15.9725 120.285 15.9675C119.52 15.9575 118.883 16.125 118.373 16.47C117.868 16.815 117.488 17.3 117.233 17.925C116.978 18.55 116.848 19.275 116.843 20.1C116.838 20.925 116.963 21.6475 117.218 22.2675C117.473 22.8825 117.855 23.3625 118.365 23.7075C118.88 24.0525 119.52 24.2275 120.285 24.2325ZM131.186 25.725C130.341 25.725 129.594 25.5525 128.944 25.2075C128.299 24.8575 127.794 24.37 127.429 23.745C127.064 23.115 126.881 22.375 126.881 21.525V14.7075L128.471 14.7V21.4425C128.471 21.9025 128.549 22.3075 128.704 22.6575C128.859 23.0075 129.066 23.3 129.326 23.535C129.586 23.77 129.876 23.9475 130.196 24.0675C130.521 24.1875 130.851 24.2475 131.186 24.2475C131.526 24.2475 131.856 24.1875 132.176 24.0675C132.501 23.9425 132.794 23.7625 133.054 23.5275C133.314 23.2925 133.519 23 133.669 22.65C133.824 22.3 133.901 21.8975 133.901 21.4425V14.7H135.491V21.525C135.491 22.37 135.309 23.1075 134.944 23.7375C134.579 24.3675 134.071 24.8575 133.421 25.2075C132.776 25.5525 132.031 25.725 131.186 25.725ZM137.589 25.5V14.7H141.954C142.059 14.7 142.189 14.705 142.344 14.715C142.499 14.72 142.647 14.735 142.787 14.76C143.387 14.855 143.887 15.06 144.287 15.375C144.692 15.69 144.994 16.0875 145.194 16.5675C145.394 17.0475 145.494 17.5775 145.494 18.1575C145.494 19.0175 145.274 19.76 144.834 20.385C144.394 21.005 143.734 21.3925 142.854 21.5475L142.217 21.6225H139.157V25.5H137.589ZM143.904 25.5L141.774 21.105L143.357 20.7L145.697 25.5H143.904ZM139.157 20.1375H141.894C141.994 20.1375 142.104 20.1325 142.224 20.1225C142.349 20.1125 142.467 20.095 142.577 20.07C142.897 19.995 143.154 19.8575 143.349 19.6575C143.544 19.4525 143.684 19.2175 143.769 18.9525C143.854 18.6875 143.897 18.4225 143.897 18.1575C143.897 17.8925 143.854 17.63 143.769 17.37C143.684 17.105 143.544 16.8725 143.349 16.6725C143.154 16.4675 142.897 16.3275 142.577 16.2525C142.467 16.2225 142.349 16.2025 142.224 16.1925C142.104 16.1825 141.994 16.1775 141.894 16.1775H139.157V20.1375ZM150.348 25.5V14.7H151.765L155.68 22.8225L159.573 14.7H161.005V25.4925H159.52V18.105L156.033 25.5H155.32L151.825 18.105V25.5H150.348ZM162.357 25.5L165.867 14.7H168.124L171.634 25.5H170.007L166.774 15.645H167.179L163.984 25.5H162.357ZM164.179 23.0625V21.5925H169.819V23.0625H164.179ZM172.98 25.5V14.7H177.345C177.45 14.7 177.58 14.705 177.735 14.715C177.89 14.72 178.037 14.735 178.177 14.76C178.777 14.855 179.277 15.06 179.677 15.375C180.082 15.69 180.385 16.0875 180.585 16.5675C180.785 17.0475 180.885 17.5775 180.885 18.1575C180.885 19.0175 180.665 19.76 180.225 20.385C179.785 21.005 179.125 21.3925 178.245 21.5475L177.607 21.6225H174.547V25.5H172.98ZM179.295 25.5L177.165 21.105L178.747 20.7L181.087 25.5H179.295ZM174.547 20.1375H177.285C177.385 20.1375 177.495 20.1325 177.615 20.1225C177.74 20.1125 177.857 20.095 177.967 20.07C178.287 19.995 178.545 19.8575 178.74 19.6575C178.935 19.4525 179.075 19.2175 179.16 18.9525C179.245 18.6875 179.287 18.4225 179.287 18.1575C179.287 17.8925 179.245 17.63 179.16 17.37C179.075 17.105 178.935 16.8725 178.74 16.6725C178.545 16.4675 178.287 16.3275 177.967 16.2525C177.857 16.2225 177.74 16.2025 177.615 16.1925C177.495 16.1825 177.385 16.1775 177.285 16.1775H174.547V20.1375ZM182.736 25.5V14.7H184.303V19.74L188.826 14.7H190.776L185.998 19.9725L191.128 25.5H189.118L184.303 20.34V25.5H182.736ZM192.184 25.5V14.7H199.084V16.1775H193.751V19.2075H198.184V20.685H193.751V24.0225H199.084V25.5H192.184ZM203.577 25.5V16.1775H199.985V14.7H208.737V16.1775H205.145V25.5H203.577ZM209.938 25.5V14.7H214.303C214.408 14.7 214.538 14.705 214.693 14.715C214.848 14.72 214.995 14.735 215.135 14.76C215.735 14.855 216.235 15.06 216.635 15.375C217.04 15.69 217.343 16.0875 217.543 16.5675C217.743 17.0475 217.843 17.5775 217.843 18.1575C217.843 18.7425 217.743 19.275 217.543 19.755C217.343 20.235 217.04 20.6325 216.635 20.9475C216.235 21.2625 215.735 21.4675 215.135 21.5625C214.995 21.5825 214.845 21.5975 214.685 21.6075C214.53 21.6175 214.403 21.6225 214.303 21.6225H211.505V25.5H209.938ZM211.505 20.1375H214.243C214.343 20.1375 214.453 20.1325 214.573 20.1225C214.698 20.1125 214.815 20.095 214.925 20.07C215.245 19.995 215.503 19.8575 215.698 19.6575C215.893 19.4525 216.033 19.2175 216.118 18.9525C216.203 18.6875 216.245 18.4225 216.245 18.1575C216.245 17.8925 216.203 17.63 216.118 17.37C216.033 17.105 215.893 16.8725 215.698 16.6725C215.503 16.4675 215.245 16.3275 214.925 16.2525C214.815 16.2225 214.698 16.2025 214.573 16.1925C214.453 16.1825 214.343 16.1775 214.243 16.1775H211.505V20.1375ZM219.492 25.5V14.7H221.059V24.0225H225.949V25.5H219.492ZM226.473 25.5L229.983 14.7H232.24L235.75 25.5H234.123L230.89 15.645H231.295L228.1 25.5H226.473ZM228.295 23.0625V21.5925H233.935V23.0625H228.295ZM241.31 25.725C240.23 25.725 239.31 25.49 238.55 25.02C237.79 24.545 237.208 23.885 236.803 23.04C236.403 22.195 236.203 21.215 236.203 20.1C236.203 18.985 236.403 18.005 236.803 17.16C237.208 16.315 237.79 15.6575 238.55 15.1875C239.31 14.7125 240.23 14.475 241.31 14.475C242.555 14.475 243.585 14.79 244.4 15.42C245.22 16.05 245.79 16.8975 246.11 17.9625L244.52 18.39C244.31 17.635 243.935 17.0425 243.395 16.6125C242.86 16.1825 242.165 15.9675 241.31 15.9675C240.545 15.9675 239.908 16.14 239.398 16.485C238.888 16.83 238.503 17.3125 238.243 17.9325C237.988 18.5525 237.86 19.275 237.86 20.1C237.855 20.925 237.98 21.6475 238.235 22.2675C238.495 22.8875 238.88 23.37 239.39 23.715C239.905 24.06 240.545 24.2325 241.31 24.2325C242.165 24.2325 242.86 24.0175 243.395 23.5875C243.935 23.1525 244.31 22.56 244.52 21.81L246.11 22.2375C245.79 23.3025 245.22 24.15 244.4 24.78C243.585 25.41 242.555 25.725 241.31 25.725ZM247.76 25.5V14.7H254.66V16.1775H249.327V19.2075H253.76V20.685H249.327V24.0225H254.66V25.5H247.76Z" fill="#EA981C"/>
</svg>
