<svg width="99" height="18" viewBox="0 0 99 18" fill="none" xmlns="http://www.w3.org/2000/svg">
<path d="M9.69976 14.8456C9.57455 14.7719 9.41922 14.7719 9.294 14.8456L4.69368 17.553C4.39751 17.7273 4.03394 17.4716 4.09775 17.134L5.13657 11.6372C5.1615 11.5053 5.11861 11.3697 5.02237 11.2762L1.09333 7.45607C0.852762 7.22217 0.989734 6.81386 1.32269 6.77235L6.60121 6.11434C6.74106 6.09691 6.86141 6.00717 6.91803 5.87812L9.13058 0.834933C9.27056 0.515869 9.7232 0.51587 9.86318 0.834936L12.0757 5.87811C12.1323 6.00717 12.2527 6.09691 12.3925 6.11434L17.671 6.77235C18.004 6.81386 18.1409 7.22217 17.9004 7.45607L13.9714 11.2762C13.8751 11.3697 13.8323 11.5053 13.8572 11.6372L14.896 17.134C14.9598 17.4716 14.5962 17.7273 14.3001 17.553L9.69976 14.8456Z" fill="#FFB800"/>
<path d="M29.7017 14.8456C29.5765 14.7719 29.4212 14.7719 29.296 14.8456L24.6956 17.553C24.3995 17.7273 24.0359 17.4716 24.0997 17.134L25.1385 11.6372C25.1634 11.5053 25.1206 11.3697 25.0243 11.2762L21.0953 7.45607C20.8547 7.22217 20.9917 6.81386 21.3246 6.77235L26.6032 6.11434C26.743 6.09691 26.8634 6.00717 26.92 5.87812L29.1325 0.834933C29.2725 0.515869 29.7252 0.51587 29.8651 0.834936L32.0776 5.87811C32.1343 6.00717 32.2546 6.09691 32.3945 6.11434L37.673 6.77235C38.0059 6.81386 38.1429 7.22217 37.9023 7.45607L33.9733 11.2762C33.8771 11.3697 33.8342 11.5053 33.8591 11.6372L34.8979 17.134C34.9617 17.4716 34.5982 17.7273 34.302 17.553L29.7017 14.8456Z" fill="#FFB800"/>
<path d="M49.7027 14.8456C49.5775 14.7719 49.4221 14.7719 49.2969 14.8456L44.6966 17.553C44.4004 17.7273 44.0369 17.4716 44.1007 17.134L45.1395 11.6372C45.1644 11.5053 45.1215 11.3697 45.0253 11.2762L41.0963 7.45607C40.8557 7.22217 40.9927 6.81386 41.3256 6.77235L46.6041 6.11434C46.744 6.09691 46.8643 6.00717 46.921 5.87812L49.1335 0.834933C49.2735 0.515869 49.7261 0.51587 49.8661 0.834936L52.0786 5.87811C52.1352 6.00717 52.2556 6.09691 52.3954 6.11434L57.6739 6.77235C58.0069 6.81386 58.1439 7.22217 57.9033 7.45607L53.9743 11.2762C53.8781 11.3697 53.8352 11.5053 53.8601 11.6372L54.8989 17.134C54.9627 17.4716 54.5991 17.7273 54.303 17.553L49.7027 14.8456Z" fill="#FFB800"/>
<path d="M69.7046 14.8456C69.5794 14.7719 69.4241 14.7719 69.2989 14.8456L64.6986 17.553C64.4024 17.7273 64.0388 17.4716 64.1026 17.134L65.1415 11.6372C65.1664 11.5053 65.1235 11.3697 65.0272 11.2762L61.0982 7.45607C60.8576 7.22217 60.9946 6.81386 61.3276 6.77235L66.6061 6.11434C66.7459 6.09691 66.8663 6.00717 66.9229 5.87812L69.1355 0.834933C69.2754 0.515869 69.7281 0.51587 69.8681 0.834936L72.0806 5.87811C72.1372 6.00717 72.2575 6.09691 72.3974 6.11434L77.6759 6.77235C78.0088 6.81386 78.1458 7.22217 77.9052 7.45607L73.9763 11.2762C73.88 11.3697 73.8371 11.5053 73.8621 11.6372L74.9009 17.134C74.9647 17.4716 74.6011 17.7273 74.3049 17.553L69.7046 14.8456Z" fill="#FFB800"/>
<path d="M89.7056 14.8456C89.5804 14.7719 89.4251 14.7719 89.2999 14.8456L84.6995 17.553C84.4034 17.7273 84.0398 17.4716 84.1036 17.134L85.1424 11.6372C85.1674 11.5053 85.1245 11.3697 85.0282 11.2762L81.0992 7.45607C80.8586 7.22217 80.9956 6.81386 81.3285 6.77235L86.6071 6.11434C86.7469 6.09691 86.8673 6.00717 86.9239 5.87812L89.1364 0.834933C89.2764 0.515869 89.7291 0.51587 89.869 0.834936L92.0815 5.87811C92.1382 6.00717 92.2585 6.09691 92.3984 6.11434L97.6769 6.77235C98.0098 6.81386 98.1468 7.22217 97.9062 7.45607L93.9772 11.2762C93.881 11.3697 93.8381 11.5053 93.863 11.6372L94.9018 17.134C94.9656 17.4716 94.6021 17.7273 94.3059 17.553L89.7056 14.8456Z" fill="#FFB800"/>
</svg>
