<svg width="161" height="40" viewBox="0 0 161 40" fill="none" xmlns="http://www.w3.org/2000/svg">
<rect x="0.5" width="159.783" height="40" rx="2" fill="#FFB444" fill-opacity="0.08"/>
<path d="M20.5 10C20.5167 10 20.5333 10 20.5498 10C21.249 10.3184 21.7678 10.8172 22.1063 11.4962C22.1254 11.5343 22.1349 11.5755 22.1349 11.6196C22.1367 14.9738 22.1373 18.3282 22.1366 21.6826C22.1366 21.8918 22.1377 22.0734 22.1399 22.2272C22.1455 22.6015 22.1536 22.8695 22.1641 23.0313C22.2394 24.1974 22.6349 25.2409 23.3504 26.1619C23.7703 26.7021 24.2579 27.1453 24.8131 27.4916C25.8821 28.1579 27.0509 28.448 28.3195 28.3621C28.5039 28.3496 28.6858 28.3276 28.8652 28.2962C29.9115 28.1131 30.8362 27.6807 31.6393 26.9989C31.777 26.8819 31.9097 26.7567 32.0373 26.6232C33.024 25.5906 33.5554 24.3569 33.6315 22.9221C33.6413 22.7406 33.6397 22.5591 33.6269 22.3777C33.5249 20.9255 32.96 19.69 31.9323 18.6711C31.8012 18.5411 31.6652 18.4194 31.5244 18.3063C30.6954 17.6391 29.7497 17.2292 28.6875 17.0768C28.5028 17.0503 28.3204 17.0336 28.1401 17.0267C27.8486 17.0158 27.5573 17.0263 27.2663 17.0583C27.1863 17.0672 27.099 17.074 27.0042 17.0787C27.0016 17.0789 26.9991 17.0785 26.9967 17.0776C26.9943 17.0768 26.9921 17.0754 26.9902 17.0736C26.9884 17.0719 26.9869 17.0698 26.9859 17.0674C26.9849 17.065 26.9843 17.0625 26.9844 17.0599V15.4632C26.9843 15.4567 26.9868 15.4503 26.9913 15.4454C26.9957 15.4405 27.0019 15.4375 27.0086 15.4368C27.3725 15.401 27.7404 15.3881 28.1121 15.3981C29.0293 15.4226 29.9074 15.6083 30.7465 15.955C30.9128 16.0237 31.079 16.1002 31.2449 16.1845C32.4966 16.821 33.4888 17.7335 34.2215 18.9221C34.3182 19.079 34.4075 19.2376 34.4894 19.3978C34.9526 20.3037 35.2129 21.2629 35.2703 22.2752C35.3446 23.584 35.083 24.8262 34.4856 26.0019C34.1718 26.6195 33.7853 27.1694 33.3259 27.6515C33.2016 27.7821 33.1237 27.8661 33.0922 27.9035C33.0852 27.9121 33.0726 27.9212 33.0545 27.9308C33.0396 27.9388 33.0273 27.9477 33.0176 27.9575C32.8627 28.1143 32.6982 28.2607 32.5242 28.3967C31.2952 29.3582 29.895 29.8926 28.3236 30C28.0599 30 27.7963 30 27.5328 30C26.0468 29.9168 24.7114 29.4486 23.5267 28.5954C23.3776 28.488 23.2337 28.3756 23.0951 28.258C22.4181 27.6844 21.8654 27.0179 21.4368 26.2586C20.8293 25.1814 20.5215 24.0148 20.5135 22.7589C20.5126 22.6219 20.5081 22.4851 20.5 22.3485C20.5 18.2322 20.5 14.1161 20.5 10Z" fill="#EA981C"/>
<path d="M29.6438 20.9417C29.2769 20.5847 28.841 20.3601 28.3362 20.2678C28.1543 20.2346 27.972 20.2226 27.7892 20.2319C27.5275 20.245 27.2699 20.2951 27.0165 20.3823C27.0129 20.3835 27.009 20.3839 27.0052 20.3834C27.0013 20.3828 26.9977 20.3814 26.9946 20.3792C26.9914 20.377 26.9888 20.3741 26.9871 20.3707C26.9853 20.3673 26.9844 20.3635 26.9844 20.3597V18.7259C26.9844 18.7138 26.9888 18.7021 26.9968 18.693C27.0049 18.6839 27.016 18.6779 27.0281 18.6763C27.1284 18.6625 27.2381 18.6479 27.3573 18.6324C27.7512 18.581 28.1442 18.5866 28.5362 18.649C29.4789 18.7991 30.2653 19.2045 30.8953 19.8654C31.5175 20.5179 31.8871 21.2848 32.0041 22.1662C32.088 22.7991 32.0239 23.4258 31.8115 24.0463C31.6113 24.6312 31.2843 25.1485 30.8307 25.5981C30.7016 25.7262 30.5634 25.8455 30.4162 25.9561C29.6884 26.5027 28.8631 26.7844 27.9404 26.8011C27.7589 26.8044 27.5759 26.7941 27.3914 26.7703C26.1792 26.6132 25.2166 26.0452 24.5037 25.0665C24.0973 24.5084 23.8544 23.8774 23.7748 23.1733C23.7599 23.0412 23.7525 22.8599 23.7525 22.6294C23.7525 19.2756 23.7525 15.9202 23.7525 12.5635C23.7525 12.56 23.7534 12.5567 23.7551 12.5536C23.7567 12.5506 23.7591 12.5481 23.7621 12.5462C23.765 12.5443 23.7683 12.5432 23.7718 12.5429C23.7753 12.5427 23.7787 12.5433 23.7819 12.5447C24.4921 12.8638 25.021 13.3802 25.3687 14.0937C25.3823 14.1213 25.389 14.1506 25.389 14.1815C25.389 17.0205 25.389 19.8592 25.389 22.6975C25.389 22.7595 25.3966 22.849 25.4116 22.9662C25.4244 23.0658 25.4398 23.1541 25.4578 23.2313C25.6005 23.845 25.9231 24.3321 26.4257 24.6926C26.5753 24.8 26.7342 24.8901 26.9024 24.9629C27.4254 25.1895 27.9684 25.2313 28.5315 25.0886C28.8702 25.0028 29.1785 24.8483 29.4565 24.6251C29.5977 24.5117 29.7264 24.3829 29.8427 24.2387C30.1982 23.7973 30.3806 23.2904 30.3898 22.718C30.3925 22.5334 30.3743 22.353 30.335 22.1768C30.2279 21.6976 29.9975 21.2859 29.6438 20.9417Z" fill="#EA981C"/>
<path d="M48.0322 25.5V25.2525L53.5447 16.1775H48.3322V14.7H56.2372V14.955L50.7547 24.015H56.1397V25.5H48.0322ZM58.0441 25.5V14.7H64.9441V16.1775H59.6116V19.2075H64.0441V20.685H59.6116V24.0225H64.9441V25.5H58.0441ZM66.7453 25.5V14.7H71.1103C71.2153 14.7 71.3453 14.705 71.5003 14.715C71.6553 14.72 71.8028 14.735 71.9428 14.76C72.5428 14.855 73.0428 15.06 73.4428 15.375C73.8478 15.69 74.1503 16.0875 74.3503 16.5675C74.5503 17.0475 74.6503 17.5775 74.6503 18.1575C74.6503 19.0175 74.4303 19.76 73.9903 20.385C73.5503 21.005 72.8903 21.3925 72.0103 21.5475L71.3728 21.6225H68.3128V25.5H66.7453ZM73.0603 25.5L70.9303 21.105L72.5128 20.7L74.8528 25.5H73.0603ZM68.3128 20.1375H71.0503C71.1503 20.1375 71.2603 20.1325 71.3803 20.1225C71.5053 20.1125 71.6228 20.095 71.7328 20.07C72.0528 19.995 72.3103 19.8575 72.5053 19.6575C72.7003 19.4525 72.8403 19.2175 72.9253 18.9525C73.0103 18.6875 73.0528 18.4225 73.0528 18.1575C73.0528 17.8925 73.0103 17.63 72.9253 17.37C72.8403 17.105 72.7003 16.8725 72.5053 16.6725C72.3103 16.4675 72.0528 16.3275 71.7328 16.2525C71.6228 16.2225 71.5053 16.2025 71.3803 16.1925C71.2603 16.1825 71.1503 16.1775 71.0503 16.1775H68.3128V20.1375ZM81.0087 25.725C79.9287 25.725 79.0087 25.49 78.2487 25.02C77.4887 24.545 76.9062 23.885 76.5012 23.04C76.1012 22.195 75.9012 21.215 75.9012 20.1C75.9012 18.985 76.1012 18.005 76.5012 17.16C76.9062 16.315 77.4887 15.6575 78.2487 15.1875C79.0087 14.7125 79.9287 14.475 81.0087 14.475C82.0837 14.475 83.0012 14.7125 83.7612 15.1875C84.5262 15.6575 85.1087 16.315 85.5087 17.16C85.9087 18.005 86.1087 18.985 86.1087 20.1C86.1087 21.215 85.9087 22.195 85.5087 23.04C85.1087 23.885 84.5262 24.545 83.7612 25.02C83.0012 25.49 82.0837 25.725 81.0087 25.725ZM81.0087 24.2325C81.7737 24.2425 82.4087 24.075 82.9137 23.73C83.4237 23.38 83.8062 22.895 84.0612 22.275C84.3162 21.65 84.4437 20.925 84.4437 20.1C84.4437 19.275 84.3162 18.555 84.0612 17.94C83.8062 17.32 83.4237 16.8375 82.9137 16.4925C82.4087 16.1475 81.7737 15.9725 81.0087 15.9675C80.2437 15.9575 79.6062 16.125 79.0962 16.47C78.5912 16.815 78.2112 17.3 77.9562 17.925C77.7012 18.55 77.5712 19.275 77.5662 20.1C77.5612 20.925 77.6862 21.6475 77.9412 22.2675C78.1962 22.8825 78.5787 23.3625 79.0887 23.7075C79.6037 24.0525 80.2437 24.2275 81.0087 24.2325ZM92.8951 25.5L89.7601 14.7H91.4026L93.6751 22.8675L95.9476 14.7075L97.5976 14.7L99.8701 22.8675L102.143 14.7H103.793L100.65 25.5H99.0901L96.7726 17.4225L94.4551 25.5H92.8951ZM103.246 25.5L106.756 14.7H109.014L112.524 25.5H110.896L107.664 15.645H108.069L104.874 25.5H103.246ZM105.069 23.0625V21.5925H110.709V23.0625H105.069ZM117.491 25.725C116.716 25.725 116.016 25.5925 115.391 25.3275C114.771 25.0575 114.259 24.675 113.854 24.18C113.454 23.68 113.194 23.0875 113.074 22.4025L114.709 22.155C114.874 22.815 115.219 23.33 115.744 23.7C116.269 24.065 116.881 24.2475 117.581 24.2475C118.016 24.2475 118.416 24.18 118.781 24.045C119.146 23.905 119.439 23.7075 119.659 23.4525C119.884 23.1925 119.996 22.8825 119.996 22.5225C119.996 22.3275 119.961 22.155 119.891 22.005C119.826 21.855 119.734 21.725 119.614 21.615C119.499 21.5 119.356 21.4025 119.186 21.3225C119.021 21.2375 118.839 21.165 118.639 21.105L115.871 20.2875C115.601 20.2075 115.326 20.105 115.046 19.98C114.766 19.85 114.509 19.6825 114.274 19.4775C114.044 19.2675 113.856 19.01 113.711 18.705C113.566 18.395 113.494 18.02 113.494 17.58C113.494 16.915 113.664 16.3525 114.004 15.8925C114.349 15.4275 114.814 15.0775 115.399 14.8425C115.984 14.6025 116.639 14.4825 117.364 14.4825C118.094 14.4925 118.746 14.6225 119.321 14.8725C119.901 15.1225 120.381 15.4825 120.761 15.9525C121.146 16.4175 121.411 16.9825 121.556 17.6475L119.876 17.9325C119.801 17.5275 119.641 17.18 119.396 16.89C119.151 16.595 118.851 16.37 118.496 16.215C118.141 16.055 117.756 15.9725 117.341 15.9675C116.941 15.9575 116.574 16.0175 116.239 16.1475C115.909 16.2775 115.644 16.46 115.444 16.695C115.249 16.93 115.151 17.2 115.151 17.505C115.151 17.805 115.239 18.0475 115.414 18.2325C115.589 18.4175 115.804 18.565 116.059 18.675C116.319 18.78 116.576 18.8675 116.831 18.9375L118.826 19.5C119.076 19.57 119.359 19.665 119.674 19.785C119.994 19.9 120.301 20.0625 120.596 20.2725C120.896 20.4825 121.144 20.7625 121.339 21.1125C121.534 21.4575 121.631 21.8925 121.631 22.4175C121.631 22.9625 121.521 23.4425 121.301 23.8575C121.081 24.2675 120.779 24.6125 120.394 24.8925C120.014 25.1675 119.574 25.375 119.074 25.515C118.574 25.655 118.046 25.725 117.491 25.725ZM125.922 25.5V16.1775H122.33V14.7H131.082V16.1775H127.49V25.5H125.922ZM132.282 25.5V14.7H139.182V16.1775H133.85V19.2075H138.282V20.685H133.85V24.0225H139.182V25.5H132.282Z" fill="#EA981C"/>
</svg>
